<svg width="275" height="244" viewBox="0 0 275 244" fill="none" xmlns="http://www.w3.org/2000/svg">
<path opacity="0.5" d="M112.643 243.568L0 178.647L135.807 100.917L248.45 165.838L112.643 243.568Z" fill="#FCB788"/>
<path opacity="0.5" d="M274.003 206.478C274.003 210.903 267.629 214.492 259.765 214.492C251.902 214.492 245.527 210.904 245.527 206.478C245.527 202.052 251.901 198.465 259.765 198.465C267.629 198.464 274.003 202.052 274.003 206.478Z" fill="#FCB788"/>
<path opacity="0.5" d="M213.41 206.247L198.289 197.531L233.194 177.373L248.316 186.088L213.41 206.247Z" fill="#FCB788"/>
<path d="M71.2971 131.224L77.6321 134.823L67.1251 140.887L60.7891 137.262L71.2971 131.224Z" fill="#DD3636"/>
<path d="M16.207 182.517L77.631 147.051V134.82L16.207 170.286V182.517Z" fill="#B71A1A"/>
<path d="M51.4571 142.667L57.7921 146.265L16.2071 170.287L9.87109 166.663L51.4571 142.667Z" fill="#DD3636"/>
<path d="M9.87109 166.663L16.2071 170.287V182.518L9.87109 178.835V166.663Z" fill="#D62929"/>
<path d="M67.121 146.997L57.793 152.383V18.3352L67.121 12.9492V146.997Z" fill="#B71A1A"/>
<path d="M51.457 22.872L57.792 18.335V146.264L51.457 142.666V22.872Z" fill="#D62929"/>
<path d="M30.0063 101.238C30.2263 101.029 30.4713 100.79 30.7063 100.562V101.638L33.2053 103.066L31.3493 117.638L28.2083 115.823L28.2103 115.808C27.2083 115.543 26.9073 114.032 26.8013 112.105C26.5773 108.028 26.9903 104.108 30.0063 101.238Z" fill="#D62929"/>
<path d="M57.7698 78.0703C57.7698 78.0703 38.7928 96.7333 33.2058 103.065C30.4508 106.187 29.7768 109.855 30.0008 113.932C30.1828 117.238 30.9078 119.373 34.8268 115.982C40.5578 111.022 57.7698 97.1893 57.7698 97.1893V78.0703Z" fill="#B71A1A"/>
<path d="M54.5709 76.2422L57.7689 78.0702L33.2049 103.065L30.0059 101.237L54.5709 76.2422Z" fill="#DD3636"/>
<path d="M57.5781 6.65829L66.8061 1.32129L70.1731 4.26128L60.6831 8.82129L57.5781 6.65829Z" fill="#B71A1A"/>
<path d="M53.3396 121.31L51.4006 120.224L22.1826 137.093C20.5336 138.045 19.1836 140.623 19.1836 142.822C19.1836 144.043 19.6086 144.882 20.2606 145.24L20.2566 145.255L22.2946 146.385L23.5336 144.308L51.3986 128.22L53.3396 121.31Z" fill="#773939"/>
<path d="M24.122 138.179L53.34 121.31V129.306L24.122 146.175C22.473 147.127 21.123 146.107 21.123 143.908C21.124 141.709 22.473 139.131 24.122 138.179Z" fill="#4C2522"/>
<path d="M22.3312 170.399C21.9632 170.219 21.4882 170.25 20.9802 170.543C19.7912 171.23 18.8262 173.072 18.8262 174.659C18.8262 175.513 19.1062 176.118 19.5502 176.388L110.005 228.335L112.247 221.97L22.3312 170.399Z" fill="#773939"/>
<path d="M145.007 104.465C144.639 104.285 144.164 104.316 143.656 104.609C142.467 105.296 141.502 107.138 141.502 108.725C141.502 109.579 141.782 110.184 142.226 110.454L232.681 162.401L234.923 156.036L145.007 104.465Z" fill="#F2E8BA"/>
<path d="M127.212 163.621L34.2539 110.045L134.023 52.4443L226.981 106.02L127.212 163.621Z" fill="#773939"/>
<path d="M134.292 202.773L127.211 163.622L226.98 106.021V148.494L134.292 202.773Z" fill="#421F1D"/>
<path d="M34.3535 109.909L41.3345 149.196L134.293 202.772L127.212 163.621L34.3535 109.909Z" fill="#4F2826"/>
<path d="M107.629 39.9951L139.478 21.4521C139.478 21.4521 154.186 25.6021 161.327 30.7231C168.468 35.8441 211.215 59.3702 211.456 59.9192C211.697 60.4682 201.118 72.5851 201.118 72.5851L179.397 80.1682C179.397 80.1682 135.968 57.7341 129.6 52.4431C123.233 47.1531 107.629 39.9951 107.629 39.9951Z" fill="#B71A1A"/>
<path d="M158.801 64.0656L118.145 40.5936C114.421 38.4426 110.687 38.2286 107.63 39.9956C104.138 42.0106 102.135 46.3586 102.135 51.9216V71.0296C103.577 71.8626 105.519 73.2996 107.957 74.3906L107.928 51.9216C107.928 48.5356 108.9 45.9516 110.527 45.0116C112.051 44.1326 113.935 44.8536 115.248 45.6116L158.802 70.7566V64.0656H158.801Z" fill="#D62929"/>
<path d="M149.993 22.0508C146.269 19.8998 142.535 19.6858 139.477 21.4518C135.985 23.4668 133.982 27.8148 133.982 33.3778V50.5578H139.797L139.775 33.3778C139.775 29.9918 140.747 27.4078 142.374 26.4678C143.898 25.5888 145.782 26.3098 147.095 27.0678L198.288 56.5988V49.7738L149.993 22.0508Z" fill="#B71A1A"/>
<path d="M193.12 93.4204L143.117 122.481L143.557 123.238L193.559 94.1769L193.12 93.4204Z" fill="#FCAA47"/>
<path d="M187.756 90.6714L137.76 119.738L138.2 120.495L188.196 91.4278L187.756 90.6714Z" fill="#FCAA47"/>
<path d="M185.825 86.56L135.822 115.621L136.262 116.378L186.264 87.3165L185.825 86.56Z" fill="#FCAA47"/>
<path d="M181.809 83.2338L131.807 112.295L132.246 113.051L182.249 83.9904L181.809 83.2338Z" fill="#FCAA47"/>
<path d="M178.938 79.4038L128.941 108.471L129.381 109.227L179.378 80.1603L178.938 79.4038Z" fill="#FCAA47"/>
<path d="M174.235 76.7182L124.232 105.779L124.672 106.536L174.675 77.4747L174.235 76.7182Z" fill="#FCAA47"/>
<path d="M167.877 74.8335L117.881 103.9L118.321 104.657L168.317 75.59L167.877 74.8335Z" fill="#FCAA47"/>
<path d="M163.18 71.9585L113.184 101.025L113.623 101.782L163.62 72.715L163.18 71.9585Z" fill="#FCAA47"/>
<path d="M158.756 69.1929L108.76 98.2598L109.2 99.0162L159.196 69.9493L158.756 69.1929Z" fill="#FCAA47"/>
<path d="M154.106 66.1187L104.109 95.1855L104.549 95.942L154.546 66.8751L154.106 66.1187Z" fill="#FCAA47"/>
<path d="M150.139 62.9273L100.143 91.9941L100.582 92.7506L150.579 63.6837L150.139 62.9273Z" fill="#FCAA47"/>
<path d="M97.4283 89.3133L96.9883 88.5564L143.209 61.7354L144.066 62.2493L97.4283 89.3133Z" fill="#FCAA47"/>
<path d="M92.274 86.381L91.834 85.625L138.075 58.791L138.948 59.296L92.274 86.381Z" fill="#FCAA47"/>
<path d="M87.3951 83.7356L86.9551 82.9796L133.344 56.0596L134.28 56.5996L87.3951 83.7356Z" fill="#FCAA47"/>
<path d="M82.4244 81.2736L81.9844 80.5165L128.725 53.3936L129.599 53.8976L82.4244 81.2736Z" fill="#FCAA47"/>
<path d="M77.3423 78.4915L76.9023 77.7355L123.797 50.5225L124.649 51.0395L77.3423 78.4915Z" fill="#FCAA47"/>
<path d="M72.7838 75.6647L72.3438 74.9087L119.049 47.8057L119.923 48.3107L72.7838 75.6647Z" fill="#FCAA47"/>
<path d="M69.317 72.2894L68.877 71.5334L114.34 45.1514L115.246 45.6114L69.317 72.2894Z" fill="#FCAA47"/>
<path d="M231.828 149.93L238.164 153.528L164.087 196.788L157.754 192.569L231.828 149.93Z" fill="#DD3636"/>
<path d="M113.174 237.824L238.164 165.757V153.527L159.423 198.927L154.759 201.571L113.174 225.593V237.824Z" fill="#B71A1A"/>
<path d="M148.423 197.973L154.759 201.572L113.174 225.594L106.838 221.969L148.423 197.973Z" fill="#DD3636"/>
<path d="M106.838 221.969L113.174 225.594V237.825L106.838 234.142V221.969Z" fill="#D62929"/>
<path d="M213.656 58.6471L195.932 48.4141C195.932 48.4141 196.124 50.4321 196.149 51.1931C196.18 52.1371 196.158 55.2351 196.158 55.2351L210.76 63.6651C216.297 66.8631 221.187 75.9211 221.187 83.4451V102.675C222.983 104.066 224.97 104.912 226.982 106.021V83.4451C226.982 73.9471 220.887 62.8221 213.656 58.6471Z" fill="#B71A1A"/>
<path d="M213.656 58.6468L181.586 77.2208L118.145 40.5938L149.995 22.0508L213.656 58.6468Z" fill="#CC2323"/>
<path d="M7.67383 151.199C7.67383 139.925 14.5278 126.828 22.9838 121.947C26.6708 119.818 30.0518 119.605 32.6938 120.974L32.7078 120.98C32.7278 120.99 32.7458 121.003 32.7658 121.014L35.4958 122.606L35.2548 123.107C37.1548 125.41 38.2928 128.955 38.2928 133.521C38.2928 144.795 31.4388 157.892 22.9828 162.774C20.1958 164.383 17.5898 164.879 15.3388 164.443L15.1478 164.84L13.2668 163.744C13.2348 163.728 13.2058 163.707 13.1738 163.69L12.6108 163.362L12.6218 163.34C9.58783 161.362 7.67383 157.138 7.67383 151.199Z" fill="#632F2D"/>
<path d="M40.3602 134.717C40.3602 145.991 33.5052 159.088 25.0502 163.969C16.5952 168.851 9.74023 163.669 9.74023 152.395C9.74023 141.121 16.5952 128.024 25.0502 123.143C33.5052 118.261 40.3602 123.443 40.3602 134.717Z" fill="#3F1D1B"/>
<path d="M34.5265 126.67C32.3885 125.626 29.6355 125.803 26.6855 127.506C19.7835 131.491 14.1875 142.182 14.1875 151.385C14.1875 156.342 15.8125 159.852 18.3885 161.417L110.079 214.131L126.169 179.384C126.17 179.385 34.7475 126.78 34.5265 126.67Z" fill="#FFC255"/>
<path d="M130.637 189.572C130.637 198.775 125.042 209.466 118.139 213.451C111.237 217.436 105.641 213.206 105.641 204.003C105.641 194.8 111.236 184.109 118.139 180.124C125.042 176.139 130.637 180.369 130.637 189.572Z" fill="#FCAA47"/>
<path d="M126.461 200.325C129.51 193.16 128.696 185.954 124.643 184.23C120.59 182.505 114.833 186.914 111.784 194.079C108.735 201.243 109.549 208.449 113.602 210.174C117.655 211.899 123.412 207.489 126.461 200.325Z" fill="#EF9533"/>
<path d="M125.555 194.017C125.555 198.47 122.848 203.643 119.508 205.571C116.169 207.499 113.461 205.452 113.461 201C113.461 196.547 116.168 191.374 119.508 189.446C122.848 187.518 125.555 189.564 125.555 194.017Z" fill="#E88725"/>
<path d="M19.0737 98.0669C18.8657 97.9669 18.6057 97.9809 18.3187 98.1459C17.6437 98.5359 17.0957 99.5819 17.0957 100.483C17.0957 100.972 17.2607 101.31 17.5157 101.461L22.8967 104.498L24.3757 101.05L19.0737 98.0669Z" fill="#4C2522"/>
<path d="M24.9855 98.1644C24.4555 97.9054 23.7715 97.9494 23.0395 98.3724C21.3265 99.3614 19.9375 102.015 19.9375 104.299C19.9375 105.529 20.3405 106.401 20.9805 106.789L121.717 164.724L125.712 156.1L24.9855 98.1644Z" fill="#F2E8BA"/>
<path d="M126.821 158.628C126.821 160.912 125.432 163.566 123.719 164.555C122.006 165.544 120.617 164.494 120.617 162.21C120.617 159.926 122.006 157.272 123.719 156.283C125.432 155.294 126.821 156.344 126.821 158.628Z" fill="#D8CB95"/>
<path d="M124.755 159.113C124.546 159.013 124.287 159.027 124 159.192C123.325 159.582 122.777 160.628 122.777 161.529C122.777 162.018 122.942 162.356 123.197 162.508L128.578 165.545L130.057 162.097L124.755 159.113Z" fill="#4C2522"/>
<path d="M92.6129 145.741C92.6129 142.885 94.1039 140.724 95.5089 139.907L146.421 110.513L145.971 109.732L94.9979 139.162L94.9999 139.166C93.2739 140.205 91.7129 142.713 91.7129 145.741C91.7129 145.741 91.7129 183.666 91.7129 196.308C91.7129 198.169 91.8879 205.537 95.8609 205.955C93.0889 203.286 92.6139 198.197 92.6139 196.345C92.6129 183.694 92.6129 145.741 92.6129 145.741Z" fill="#FCAA47"/>
<path d="M97.2633 148.317C97.2633 145.461 98.7543 143.3 100.159 142.483L151.071 113.089L150.621 112.308L99.6483 141.737L99.6503 141.741C97.9243 142.781 96.3633 145.288 96.3633 148.317C96.3633 148.317 96.3633 186.242 96.3633 198.884C96.3633 200.745 96.5383 208.113 100.511 208.531C97.7393 205.862 97.2643 200.773 97.2643 198.921C97.2633 186.271 97.2633 148.317 97.2633 148.317Z" fill="#FCAA47"/>
<path d="M102.07 151.333C102.07 148.477 103.561 146.316 104.966 145.499L155.878 116.105L155.428 115.324L104.455 144.753L104.457 144.757C102.731 145.797 101.17 148.304 101.17 151.333C101.17 151.333 101.17 189.258 101.17 201.9C101.17 203.761 101.345 211.129 105.318 211.547C102.546 208.878 102.071 203.789 102.071 201.937C102.07 189.287 102.07 151.333 102.07 151.333Z" fill="#FCAA47"/>
<path d="M78.2555 137.488C78.2555 134.632 79.7465 132.471 81.1515 131.654L132.063 102.26L131.613 101.479L80.6405 130.909L80.6425 130.913C78.9165 131.953 77.3555 134.46 77.3555 137.488C77.3555 137.488 77.3555 175.413 77.3555 188.055C77.3555 189.916 77.5305 197.284 81.5035 197.702C78.7315 195.033 78.2565 189.944 78.2565 188.092C78.2555 175.441 78.2555 137.488 78.2555 137.488Z" fill="#FCAA47"/>
<path d="M82.9059 140.176C82.9059 137.32 84.3969 135.159 85.8019 134.342L136.714 104.948L136.264 104.167L85.2909 133.597L85.2929 133.601C83.5669 134.64 82.0059 137.148 82.0059 140.176C82.0059 140.176 82.0059 178.101 82.0059 190.743C82.0059 192.604 82.1809 199.972 86.1539 200.39C83.3819 197.721 82.9069 192.632 82.9069 190.78C82.9059 178.129 82.9059 140.176 82.9059 140.176Z" fill="#FCAA47"/>
<path d="M87.7125 142.93C87.7125 140.074 89.2035 137.913 90.6085 137.096L141.52 107.702L141.07 106.921L90.0975 136.351L90.0995 136.355C88.3735 137.395 86.8125 139.902 86.8125 142.93C86.8125 142.93 86.8125 180.855 86.8125 193.497C86.8125 195.358 86.9875 202.726 90.9605 203.144C88.1885 200.475 87.7135 195.386 87.7135 193.534C87.7125 180.884 87.7125 142.93 87.7125 142.93Z" fill="#FCAA47"/>
<path d="M35.1949 112.701C35.1949 109.845 36.6859 107.684 38.0909 106.867L89.0029 77.4734L88.5529 76.6924L37.5799 106.122L37.5819 106.126C35.8549 107.166 34.2949 109.673 34.2949 112.701C34.2949 112.701 34.2949 150.626 34.2949 163.268C34.2949 165.129 34.4699 172.497 38.4429 172.915C35.6709 170.246 35.1959 165.157 35.1959 163.305C35.1949 150.654 35.1949 112.701 35.1949 112.701Z" fill="#FCAA47"/>
<path d="M39.8453 115.376C39.8453 112.52 41.3363 110.359 42.7413 109.542L93.6533 80.1482L93.2033 79.3672L42.2303 108.796L42.2323 108.8C40.5063 109.84 38.9453 112.347 38.9453 115.376C38.9453 115.376 38.9453 153.301 38.9453 165.943C38.9453 167.804 39.1203 175.172 43.0933 175.59C40.3213 172.921 39.8463 167.832 39.8463 165.98C39.8453 153.329 39.8453 115.376 39.8453 115.376Z" fill="#FCAA47"/>
<path d="M44.652 118.068C44.652 115.212 46.143 113.051 47.548 112.234L98.46 82.8396L98.0099 82.0586L47.037 111.489L47.039 111.493C45.312 112.532 43.752 115.04 43.752 118.068C43.752 118.068 43.752 155.993 43.752 168.635C43.752 170.496 43.927 177.865 47.9 178.283C45.128 175.614 44.653 170.525 44.653 168.673C44.652 156.021 44.652 118.068 44.652 118.068Z" fill="#FCAA47"/>
<path d="M20.8375 104.51C20.8375 101.654 22.3285 99.493 23.7335 98.676L74.6455 69.281L74.1955 68.5L23.2225 97.93L23.2245 97.934C21.4985 98.974 19.9375 101.481 19.9375 104.509C19.9375 104.509 19.9375 142.434 19.9375 155.076C19.9375 156.937 20.1125 164.306 24.0855 164.723C21.3135 162.054 20.8385 156.965 20.8385 155.113C20.8375 142.464 20.8375 104.51 20.8375 104.51Z" fill="#FCAA47"/>
<path d="M25.4869 107.135C25.4869 104.279 26.9779 102.118 28.3819 101.301L79.2939 71.907L78.8439 71.126L27.8709 100.556L27.8729 100.56C26.1459 101.6 24.5859 104.107 24.5859 107.135C24.5859 107.135 24.5859 145.06 24.5859 157.702C24.5859 159.563 24.7609 166.932 28.7339 167.349C25.9619 164.68 25.4869 159.591 25.4869 157.739C25.4869 145.088 25.4869 107.135 25.4869 107.135Z" fill="#FCAA47"/>
<path d="M30.2926 109.862C30.2926 107.006 31.7836 104.845 33.1886 104.028L84.1006 74.6335L83.6506 73.8525L32.6776 103.283L32.6796 103.287C30.9536 104.327 29.3926 106.834 29.3926 109.862C29.3926 109.862 29.3926 147.787 29.3926 160.429C29.3926 162.29 29.5676 169.659 33.5406 170.076C30.7686 167.407 30.2936 162.318 30.2936 160.466C30.2926 147.816 30.2926 109.862 30.2926 109.862Z" fill="#FCAA47"/>
<path d="M63.9469 129.284C63.9469 126.428 65.4379 124.267 66.8429 123.45L117.755 94.0564L117.305 93.2754L66.3319 122.705L66.3339 122.709C64.6079 123.749 63.0469 126.256 63.0469 129.284C63.0469 129.284 63.0469 167.209 63.0469 179.851C63.0469 181.712 63.2219 189.081 67.1939 189.499C64.4219 186.83 63.9469 181.741 63.9469 179.889C63.9469 167.237 63.9469 129.284 63.9469 129.284Z" fill="#FCAA47"/>
<path d="M68.5973 131.935C68.5973 129.079 70.0883 126.918 71.4933 126.101L122.405 96.7068L121.955 95.9258L70.9823 125.356L70.9843 125.36C69.2583 126.4 67.6973 128.907 67.6973 131.935C67.6973 131.935 67.6973 169.86 67.6973 182.502C67.6973 184.363 67.8723 191.731 71.8453 192.149C69.0733 189.48 68.5983 184.391 68.5983 182.539C68.5973 169.889 68.5973 131.935 68.5973 131.935Z" fill="#FCAA47"/>
<path d="M73.4039 134.727C73.4039 131.871 74.8949 129.71 76.2999 128.893L127.212 99.4978L126.762 98.7168L75.7889 128.147L75.7909 128.151C74.0649 129.19 72.5039 131.698 72.5039 134.726C72.5039 134.726 72.5039 172.651 72.5039 185.293C72.5039 187.154 72.6789 194.523 76.6519 194.94C73.8799 192.271 73.4049 187.182 73.4049 185.33C73.4039 172.681 73.4039 134.727 73.4039 134.727Z" fill="#FCAA47"/>
<path d="M49.5894 121.106C49.5894 118.25 51.0805 116.089 52.4855 115.272L103.397 85.8777L102.947 85.0967L51.9744 114.527L51.9764 114.531C50.2504 115.571 48.6895 118.078 48.6895 121.107C48.6895 121.107 48.6895 159.032 48.6895 171.674C48.6895 173.535 48.8644 180.904 52.8374 181.321C50.0654 178.652 49.5905 173.563 49.5905 171.711C49.5895 159.059 49.5894 121.106 49.5894 121.106Z" fill="#FCAA47"/>
<path d="M54.2398 123.681C54.2398 120.825 55.7308 118.664 57.1358 117.847L108.048 88.4529L107.598 87.6719L56.6248 117.102L56.6268 117.106C54.9008 118.146 53.3398 120.653 53.3398 123.682C53.3398 123.682 53.3398 161.607 53.3398 174.249C53.3398 176.11 53.5148 183.478 57.4878 183.896C54.7158 181.227 54.2408 176.138 54.2408 174.286C54.2398 161.635 54.2398 123.681 54.2398 123.681Z" fill="#FCAA47"/>
<path d="M59.0465 126.322C59.0465 123.466 60.5375 121.305 61.9425 120.488L112.854 91.0945L112.404 90.3135L61.4315 119.743L61.4335 119.747C59.7075 120.787 58.1465 123.294 58.1465 126.322C58.1465 126.322 58.1465 164.247 58.1465 176.889C58.1465 178.75 58.3215 186.119 62.2945 186.536C59.5225 183.867 59.0475 178.778 59.0475 176.926C59.0465 164.276 59.0465 126.322 59.0465 126.322Z" fill="#FCAA47"/>
<path d="M103.42 206.526C103.42 195.252 110.275 182.155 118.73 177.273C122.417 175.145 125.798 174.931 128.44 176.3L128.454 176.306C128.474 176.316 128.493 176.329 128.512 176.34L131.242 177.932L131.001 178.433C132.901 180.736 134.039 184.281 134.039 188.847C134.039 200.121 127.184 213.218 118.729 218.1C115.942 219.709 113.336 220.204 111.085 219.769L110.894 220.166L109.013 219.07C108.981 219.054 108.951 219.033 108.92 219.016L108.358 218.688L108.369 218.665C105.333 216.689 103.42 212.465 103.42 206.526Z" fill="#632F2D"/>
<path d="M136.106 190.045C136.106 201.319 129.251 214.416 120.796 219.298C112.341 224.18 105.486 218.998 105.486 207.724C105.486 196.45 112.341 183.353 120.796 178.471C129.252 173.59 136.106 178.771 136.106 190.045Z" fill="#3F1D1B"/>
<path d="M111.32 203.251C111.32 196.836 115.22 189.384 120.031 186.606C122.129 185.395 124.053 185.274 125.556 186.052L125.564 186.056C125.575 186.062 125.586 186.069 125.597 186.075L127.151 186.981L127.014 187.266C128.095 188.577 128.743 190.593 128.743 193.191C128.743 199.606 124.843 207.058 120.032 209.836C118.446 210.752 116.964 211.034 115.683 210.786L115.574 211.012L114.504 210.389C114.486 210.38 114.469 210.368 114.451 210.358L114.131 210.171L114.137 210.158C112.409 209.034 111.32 206.63 111.32 203.251Z" fill="#D8CB95"/>
<path d="M129.919 193.873C129.919 200.288 126.019 207.74 121.207 210.518C116.396 213.296 112.496 210.347 112.496 203.932C112.496 197.517 116.396 190.065 121.207 187.287C126.019 184.51 129.919 187.458 129.919 193.873Z" fill="#F2E8BA"/>
<path d="M67.1385 14.6086C67.1385 10.8356 68.2216 7.95763 70.0346 6.90963C71.7326 5.93063 73.8315 6.73363 75.2945 7.57763L145.975 48.3826C152.144 51.9456 157.632 62.0376 157.632 70.4196V95.4996C159.633 97.0496 161.847 98.3146 164.088 99.5496V70.4196C164.088 59.8376 157.258 47.4446 149.202 42.7926L78.5225 1.98763C74.3735 -0.408373 70.2145 -0.647373 66.8075 1.32063C62.9175 3.56563 60.6855 8.40963 60.6855 14.6076V40.9196C62.8135 40.2396 64.9615 39.6386 67.1395 39.1546L67.1385 14.6086Z" fill="#B71A1A"/>
<path d="M164.086 202.304L154.758 207.689V73.6421L164.086 72.4551V202.304Z" fill="#B71A1A"/>
<path d="M148.422 70.0303L154.758 73.6423V201.571L148.422 197.972V70.0303Z" fill="#D62929"/>
<path d="M126.973 156.545C127.193 156.336 127.437 156.097 127.673 155.869V156.945L130.172 158.373L128.316 172.945L125.175 171.13L125.177 171.115C124.175 170.85 123.874 169.339 123.768 167.412C123.544 163.335 123.956 159.415 126.973 156.545Z" fill="#D62929"/>
<path d="M154.737 133.377C154.737 133.377 135.76 152.04 130.173 158.372C127.418 161.494 126.744 165.162 126.968 169.239C127.15 172.546 127.875 174.681 131.794 171.29C137.526 166.33 154.737 152.497 154.737 152.497V133.377Z" fill="#B71A1A"/>
<path d="M151.537 131.55L154.736 133.377L130.172 158.373L126.973 156.545L151.537 131.55Z" fill="#DD3636"/>
<path d="M154.762 179.837L152.823 178.751L123.606 195.62C121.957 196.572 120.607 199.15 120.607 201.349C120.607 202.57 121.032 203.409 121.684 203.767L121.68 203.782L123.718 204.912L124.958 202.835L152.823 186.747L154.762 179.837Z" fill="#773939"/>
<path d="M125.544 196.706L154.761 179.837V187.833L125.544 204.702C123.895 205.654 122.545 204.634 122.545 202.435C122.546 200.237 123.895 197.659 125.544 196.706Z" fill="#4C2522"/>
<path d="M64.1548 8.33007C64.1548 8.33007 57.4058 7.78306 55.7648 14.1671C54.1228 20.5511 56.7478 35.6901 56.7478 35.6901L64.1548 31.3121V8.33007Z" fill="#B71A1A"/>
<path d="M143.499 42.0137L136.629 47.1207C136.629 47.1207 150.674 63.9017 152.376 69.8597C154.078 75.8177 153.47 86.4447 153.47 86.4447L161.86 80.8037C161.86 80.8037 160.644 59.1587 155.537 53.0787C150.43 46.9987 143.499 42.0137 143.499 42.0137Z" fill="#B71A1A"/>
<path d="M152.254 68.3794L62.1682 16.2334L59.4102 17.8214L152.254 71.4884V68.3794Z" fill="#FFC255"/>
<path d="M152.254 71.4058L59.4102 17.8018V29.6388L152.254 83.2428V71.4058Z" fill="#FCAA47"/>
<path d="M148.423 99.6663L62.1682 49.7383L59.4102 51.3263L148.423 102.698V99.6663Z" fill="#FFC255"/>
<path d="M148.423 102.699L59.4102 51.3066V63.1436L148.423 114.536V102.699Z" fill="#FCAA47"/>
<path d="M57.911 19.9465C57.911 16.1735 58.993 13.2955 60.807 12.2475C62.505 11.2685 64.604 12.0715 66.066 12.9155L136.746 53.7205C142.915 57.2835 148.363 67.3755 148.363 75.7575V100.837C150.364 102.387 152.578 103.652 154.819 104.886V75.7585C154.819 65.1765 148.029 52.7835 139.973 48.1315L69.294 7.32649C65.145 4.93049 60.985 4.69149 57.579 6.65949C53.689 8.90349 51.457 13.7475 51.457 19.9465V46.2585C53.585 45.5785 55.733 44.9775 57.911 44.4935V19.9465Z" fill="#D62929"/>
<path d="M78.521 1.9873L69.293 7.32531L139.972 48.1313L149.2 42.7933L78.521 1.9873Z" fill="#B71A1A"/>
<path d="M194.91 124.594L226.98 106.02C226.98 106.02 224.555 77.2075 221.363 71.9845C218.171 66.7615 213.654 58.6465 213.654 58.6465L181.584 77.2205C181.584 77.2205 189.261 91.6305 191.267 101.768C193.273 111.905 194.91 124.594 194.91 124.594Z" fill="#B71A1A"/>
<path d="M181.585 77.2203L163.861 66.9873C163.861 66.9873 164.053 69.0053 164.078 69.7663C164.109 70.7103 164.087 73.8083 164.087 73.8083L178.689 82.2383C184.226 85.4363 189.116 94.4943 189.116 102.018V121.249L194.911 124.595V102.018C194.911 92.5203 188.816 81.3953 181.585 77.2203Z" fill="#D62929"/>
<path d="M213.533 120.587V202.94L243.067 186.173V103.744L213.533 120.587Z" fill="#FFC255"/>
<path d="M241.682 106.809L214.609 122.249V129.733L241.682 114.362V106.809Z" fill="white"/>
<path d="M203.17 114.678L213.533 120.588V203.01L203.17 197.103V114.678Z" fill="#FCAA47"/>
<path d="M205.557 118.631L211.148 121.82V197.336L205.557 194.149V118.631Z" fill="#ED9637"/>
<path d="M214.514 187.529L242.087 171.829V146.453L214.514 162.162V187.529ZM241.538 171.511L215.063 186.585V162.478L241.538 147.396V171.511Z" fill="#ED9637"/>
<path d="M241.55 123.854L220.559 135.811V156.363L241.55 144.411V123.854Z" fill="#6389D3"/>
<path d="M219.08 129.645L214.436 132.291V160.412L219.08 157.767V129.645Z" fill="#6389D3"/>
<path d="M227.915 132.658L221.207 136.48V141.789L227.915 137.97V132.658Z" fill="white"/>
<path d="M227.915 138.988L221.207 142.809V155.003L227.915 151.184V138.988Z" fill="#4C2522"/>
<path d="M240.394 126.274V143.639L229.242 149.738V132.375L240.394 126.274ZM240.757 125.661L228.879 132.159V150.351L240.757 143.854V125.661Z" fill="#4C2522"/>
<path d="M221.849 128.228C220.93 128.759 220.184 130.184 220.184 131.41C220.184 132.636 220.929 133.2 221.849 132.669C222.769 132.138 223.514 130.714 223.514 129.487C223.515 128.26 222.769 127.697 221.849 128.228Z" fill="#4C2522"/>
<path d="M222.751 128.767L222.748 128.773C222.541 128.681 222.285 128.699 222.004 128.861C221.324 129.253 220.773 130.306 220.773 131.213C220.773 131.68 220.921 132.014 221.156 132.177L221.154 132.181L222.412 132.892L224.017 129.477L222.751 128.767Z" fill="#6389D3"/>
<path d="M223.235 129.554C222.555 129.947 222.004 131 222.004 131.906C222.004 132.812 222.555 133.229 223.235 132.836C223.915 132.443 224.466 131.391 224.466 130.484C224.466 129.578 223.915 129.162 223.235 129.554Z" fill="#91A9E5"/>
<path d="M227.712 125.134C226.793 125.665 226.047 127.09 226.047 128.316C226.047 129.542 226.793 130.106 227.712 129.575C228.632 129.044 229.377 127.62 229.377 126.393C229.378 125.167 228.632 124.603 227.712 125.134Z" fill="#4C2522"/>
<path d="M228.615 125.674L228.612 125.68C228.405 125.588 228.149 125.606 227.868 125.768C227.188 126.161 226.637 127.213 226.637 128.12C226.637 128.587 226.785 128.921 227.02 129.084L227.019 129.087L228.277 129.798L229.882 126.383L228.615 125.674Z" fill="#6389D3"/>
<path d="M229.098 126.461C228.418 126.854 227.867 127.907 227.867 128.813C227.867 129.719 228.418 130.136 229.098 129.744C229.778 129.351 230.329 128.298 230.329 127.392C230.329 126.485 229.778 126.069 229.098 126.461Z" fill="#91A9E5"/>
<path d="M233.698 121.556C232.778 122.087 232.033 123.512 232.033 124.738C232.033 125.964 232.779 126.528 233.698 125.997C234.618 125.466 235.363 124.041 235.363 122.815C235.363 121.589 234.617 121.025 233.698 121.556Z" fill="#4C2522"/>
<path d="M234.599 122.096L234.596 122.102C234.389 122.011 234.133 122.028 233.852 122.19C233.172 122.583 232.621 123.635 232.621 124.542C232.621 125.01 232.769 125.343 233.004 125.506L233.002 125.51L234.26 126.221L235.865 122.806L234.599 122.096Z" fill="#6389D3"/>
<path d="M235.083 122.883C234.403 123.276 233.852 124.329 233.852 125.235C233.852 126.142 234.403 126.558 235.083 126.166C235.763 125.774 236.314 124.72 236.314 123.814C236.314 122.907 235.763 122.49 235.083 122.883Z" fill="#91A9E5"/>
<path d="M239.581 118.458C238.661 118.989 237.916 120.413 237.916 121.64C237.916 122.866 238.661 123.43 239.581 122.899C240.501 122.368 241.246 120.943 241.246 119.717C241.246 118.491 240.5 117.927 239.581 118.458Z" fill="#4C2522"/>
<path d="M240.482 118.998L240.479 119.004C240.272 118.912 240.016 118.93 239.735 119.092C239.055 119.485 238.504 120.537 238.504 121.444C238.504 121.911 238.652 122.245 238.887 122.408L238.885 122.411L240.143 123.122L241.748 119.707L240.482 118.998Z" fill="#6389D3"/>
<path d="M240.965 119.783C240.285 120.176 239.734 121.229 239.734 122.135C239.734 123.042 240.285 123.458 240.965 123.066C241.645 122.673 242.196 121.621 242.196 120.714C242.197 119.807 241.645 119.391 240.965 119.783Z" fill="#91A9E5"/>
<path d="M229.744 132.933L232.363 131.396V132.386L229.744 133.923V132.933Z" fill="white"/>
<path d="M229.744 135.459L232.363 133.923V134.912L229.744 136.449V135.459Z" fill="white"/>
<path d="M229.744 138.089L232.363 136.552V137.542L229.744 139.079V138.089Z" fill="white"/>
<path d="M237.195 129.092L239.814 127.555V128.545L237.195 130.082V129.092Z" fill="white"/>
<path d="M237.195 131.618L239.814 130.082V131.071L237.195 132.608V131.618Z" fill="white"/>
<path d="M237.195 134.247L239.814 132.711V133.701L237.195 135.237V134.247Z" fill="white"/>
<path d="M229.744 142.672L232.363 141.136V142.126L229.744 143.662V142.672Z" fill="white"/>
<path d="M229.744 145.302L232.363 143.765V144.755L229.744 146.292V145.302Z" fill="white"/>
<path d="M229.744 147.828L232.363 146.292V147.282L229.744 148.818V147.828Z" fill="white"/>
<path d="M237.195 138.831L239.814 137.294V138.284L237.195 139.82V138.831Z" fill="white"/>
<path d="M237.195 141.461L239.814 139.924V140.914L237.195 142.45V141.461Z" fill="white"/>
<path d="M237.195 143.987L239.814 142.45V143.44L237.195 144.977V143.987Z" fill="white"/>
<path d="M215.602 137.049L218.221 135.513V136.503L215.602 138.039V137.049Z" fill="#4C2522"/>
<path d="M217.065 131.44C216.22 131.928 215.535 133.236 215.535 134.363C215.535 135.489 216.22 136.007 217.065 135.519C217.91 135.031 218.594 133.723 218.594 132.596C218.595 131.47 217.91 130.952 217.065 131.44Z" fill="#4C2522"/>
<path d="M217.244 132.06C216.656 132.399 216.18 133.309 216.18 134.093C216.18 134.876 216.656 135.236 217.244 134.897C217.832 134.558 218.308 133.648 218.308 132.864C218.308 132.08 217.832 131.721 217.244 132.06Z" fill="white"/>
<path d="M215.602 144.127L218.221 142.591V143.581L215.602 145.117V144.127Z" fill="#4C2522"/>
<path d="M217.065 138.518C216.22 139.006 215.535 140.314 215.535 141.441C215.535 142.567 216.22 143.085 217.065 142.597C217.91 142.109 218.594 140.801 218.594 139.674C218.594 138.547 217.91 138.03 217.065 138.518Z" fill="#4C2522"/>
<path d="M217.244 139.14C216.656 139.479 216.18 140.389 216.18 141.173C216.18 141.956 216.656 142.316 217.244 141.977C217.832 141.638 218.308 140.728 218.308 139.944C218.308 139.16 217.832 138.8 217.244 139.14Z" fill="white"/>
<path d="M215.602 151.02L218.221 149.484V150.474L215.602 152.01V151.02Z" fill="#4C2522"/>
<path d="M217.065 145.411C216.22 145.898 215.535 147.207 215.535 148.334C215.535 149.46 216.22 149.978 217.065 149.49C217.91 149.002 218.594 147.694 218.594 146.567C218.595 145.441 217.91 144.923 217.065 145.411Z" fill="#4C2522"/>
<path d="M217.244 146.032C216.656 146.371 216.18 147.281 216.18 148.065C216.18 148.849 216.656 149.209 217.244 148.87C217.832 148.531 218.308 147.621 218.308 146.837C218.308 146.053 217.832 145.693 217.244 146.032Z" fill="white"/>
<path d="M215.602 158.099L218.221 156.563V157.553L215.602 159.089V158.099Z" fill="#4C2522"/>
<path d="M217.065 152.49C216.22 152.978 215.535 154.286 215.535 155.413C215.535 156.539 216.22 157.057 217.065 156.569C217.91 156.081 218.594 154.773 218.594 153.646C218.595 152.52 217.91 152.002 217.065 152.49Z" fill="#4C2522"/>
<path d="M217.244 153.111C216.656 153.45 216.18 154.36 216.18 155.144C216.18 155.927 216.656 156.287 217.244 155.948C217.832 155.609 218.308 154.699 218.308 153.915C218.308 153.132 217.832 152.772 217.244 153.111Z" fill="white"/>
<path d="M203.17 114.678L213.533 120.588L243.067 103.745L232.62 98.3096L203.17 114.678Z" fill="#FFC871"/>
<path d="M254.793 137.939L245.21 143.37L239.814 126.452L249.397 121.02L254.793 137.939Z" fill="#262626"/>
<path d="M255.151 137.76L245.568 143.191L240.172 126.273L249.755 120.841L255.151 137.76Z" fill="#494949"/>
<path d="M254.037 136.159L245.878 140.785L241.283 126.379L249.443 121.754L254.037 136.159Z" fill="white"/>
<path d="M252.412 129.234C252.552 129.674 253.009 131.108 253.009 131.108C253.009 131.108 252.026 131.645 251.638 131.974C251.249 132.303 251.578 132.632 252.057 132.632C252.536 132.632 253.434 132.752 253.822 132.632C254.211 132.512 254.652 132.372 254.652 132.372L255.8 130.392C255.8 130.392 253.933 128.947 252.412 129.234Z" fill="#FFC4B2"/>
<path d="M243.31 137.062C243.31 137.062 244.147 136.673 245.104 136.594C245.655 136.548 245.744 136.797 245.604 137.065C245.501 137.263 245.273 137.472 245.014 137.581C244.798 137.671 244.348 138.306 243.834 138.927C243.274 139.603 243.19 140.363 243.19 140.363C243.19 140.363 243.732 142.726 242.592 141.672C241.216 140.4 240.229 137.743 240.887 136.475C241.545 135.207 242.388 134.526 242.388 134.526L243.31 137.062Z" fill="#FFC4B2"/>
<path d="M267.656 122.692C267.656 122.692 270.72 121.725 272.373 124.676C274.026 127.627 272.77 132.175 271.693 133.714C270.616 135.253 266.256 130.598 266.256 130.598L267.656 122.692Z" fill="#B7C7E5"/>
<path d="M264.032 203.976C262.385 203.153 260.821 202.146 261.321 201.206C261.547 200.782 262.071 200.594 262.578 200.509C264.097 201.009 265.101 200.923 265.101 200.923C265.101 200.923 264.131 185.406 264.045 180.97C264.021 179.747 269.541 178.872 269.541 178.872C269.613 179.167 270.38 181.955 270.358 184.742C270.318 189.898 269.436 197.586 269.184 200.514C269.054 202.026 269.541 202.896 269.652 203.628C269.26 203.798 268.451 204.151 267.848 204.425C267.026 204.8 265.679 204.8 264.032 203.976Z" fill="#FFC4B2"/>
<path d="M269.721 206.027C269.171 207.337 267.901 207.215 265.336 206.292C263.059 205.473 261.181 204.546 259.563 203.348C257.944 202.15 257.928 201.991 257.714 201.181C257.415 200.047 259.07 199.411 261.823 200.266C262.095 200.351 262.345 200.431 262.58 200.508C262.073 200.593 261.549 200.78 261.323 201.205C260.823 202.144 262.387 203.151 264.034 203.975C265.681 204.799 267.028 204.799 267.852 204.424C268.455 204.15 269.264 203.798 269.656 203.627C269.82 204.73 270.052 205.24 269.721 206.027Z" fill="#4C2522"/>
<path d="M256.024 208.624C254.377 207.801 252.813 206.794 253.314 205.854C253.54 205.429 254.064 205.242 254.571 205.157C256.09 205.657 256.87 205.723 256.87 205.723C256.87 205.723 257.41 199.398 257.192 192.96C257.009 187.53 256.073 181.393 255.776 179.721C255.562 178.517 261.48 178.464 261.48 178.464C261.543 178.722 263.442 183.34 263.471 186.018C263.535 192.077 261.497 202.031 261.229 205.159C261.099 206.671 261.536 207.545 261.647 208.276C261.255 208.446 260.446 208.798 259.843 209.072C259.018 209.448 257.67 209.448 256.024 208.624Z" fill="#FFC4B2"/>
<path d="M261.713 210.676C261.163 211.987 259.893 211.864 257.328 210.941C255.051 210.122 253.173 209.195 251.554 207.997C249.935 206.799 249.919 206.64 249.705 205.83C249.406 204.696 251.061 204.06 253.814 204.915C254.086 205 254.336 205.08 254.571 205.157C254.064 205.242 253.54 205.429 253.314 205.854C252.813 206.793 254.378 207.8 256.024 208.624C257.671 209.447 259.018 209.447 259.842 209.073C260.445 208.799 261.254 208.447 261.646 208.277C261.812 209.378 262.043 209.888 261.713 210.676Z" fill="#4C2522"/>
<path d="M262.047 108.308C261.366 108.78 258.827 109.364 258.117 114.959C257.488 119.916 258.58 121.207 259.587 121.627C260.143 121.859 262.123 121.852 262.123 121.852L262.047 126.039C262.047 126.039 264.502 127.01 266.856 126.039C269.211 125.068 269.211 125.068 269.211 125.068C269.211 125.068 268.291 123.483 268.445 120.738C268.636 117.334 269.842 112.486 268.988 110.683C267.447 107.426 263.895 107.025 262.047 108.308Z" fill="#FFC4B2"/>
<path d="M272.558 131.841C271.522 123.652 269.29 123.249 269.29 123.249C269.29 123.249 263.012 124.87 261.3 125.449C259.683 125.996 258.238 126.824 256.55 130.213C254.862 133.603 257.01 138.53 257.01 138.53C257.01 138.53 257.382 142.736 256.709 147.83C256.216 151.562 255.812 151.889 254.333 157.771C253.553 160.872 250.698 172.306 250.334 181.242C250.334 181.242 252.58 184.655 260.097 185.159C265.25 185.505 274.004 180.185 274.004 180.185C274.004 180.185 275.18 157.908 272.048 150.118C269.889 144.75 273.071 135.889 272.558 131.841Z" fill="#E1E9F9"/>
<path d="M261.796 116.465C263.184 117.916 264.542 118.374 264.956 119.682C269.828 119.741 271.929 117.05 272.997 112.19C271.209 109.248 268.812 107.05 266.334 106.526C260.342 105.26 258.028 107.968 258.397 111.911C258.577 113.833 260.391 114.996 261.796 116.465Z" fill="#703434"/>
<path d="M258.996 128.076C256.34 128.329 251.236 140.084 251.236 140.084C251.236 140.084 251.013 140.135 250.628 140.206C250.354 141.823 250.31 143.447 250.522 145.055C251.567 145.035 252.474 144.887 253.095 144.52C253.095 144.52 261.499 137.646 261.68 133.615C261.821 130.464 260.382 127.944 258.996 128.076Z" fill="#FFC4B2"/>
<path d="M259.588 115.788C259.588 115.788 261.058 113.269 261.69 115.788C262.277 118.128 260.237 118.915 260.237 118.915L259.588 115.788Z" fill="#FFC4B2"/>
<path d="M257.932 113.833C257.932 113.833 256.759 111.878 257.018 108.822C257.277 105.765 260.488 103.163 265.522 104.345C270.555 105.526 272.506 108.776 273.505 112.235C274.504 115.695 274.118 119.021 271.282 119.88C268.446 120.739 263.845 121.208 262.233 118.816C260.118 115.677 257.932 113.833 257.932 113.833Z" fill="#D1DDF2"/>
<path d="M258.447 110.021C258.447 110.021 258.572 111.985 258.679 112.946C258.832 114.317 259.277 115.134 259.277 115.134C259.277 115.134 259.965 113.659 259.518 112.582C259.071 111.506 258.447 110.021 258.447 110.021Z" fill="#9DB8E0"/>
<path d="M261.301 112.314C261.301 112.314 260.834 114.183 260.692 115.134C260.55 116.086 260.555 116.576 260.555 116.576C260.555 116.576 261.53 116.47 261.796 115.364C262.062 114.257 261.301 112.314 261.301 112.314Z" fill="#9DB8E0"/>
<path d="M266.255 118.14C266.255 118.14 264.943 118.201 264.046 117.783C263.149 117.364 261.5 117.41 261.5 117.41C261.5 117.41 262.929 118.899 264.49 118.719C266.051 118.538 266.255 118.14 266.255 118.14Z" fill="#9DB8E0"/>
<path d="M257.537 112.947L257.932 114.318C257.932 114.318 258.899 114.859 259.587 115.789C260.276 116.719 261.499 117.783 261.499 117.783C261.499 117.783 260.028 114.88 258.951 113.972C257.875 113.062 257.537 112.947 257.537 112.947Z" fill="#9DB8E0"/>
<path opacity="0.8" d="M261.69 105.034C259.69 105.042 258.896 106.031 259.058 106.915C259.221 107.799 260.279 108.14 261.5 108.822C262.721 109.504 264.411 111.853 264.957 114.446C265.502 117.04 267.707 118.907 269.61 118.915C271.514 118.923 272.62 118.608 273.009 116.792C273.398 114.976 273.238 113.689 272.132 114.327C269.795 115.677 267.297 115.942 266.669 112.947C266.041 109.952 264.319 109.19 262.98 107.856C261.638 106.523 263.977 105.024 261.69 105.034Z" fill="white"/>
<path d="M259.67 126.221C259.67 126.221 261.465 123.519 264.515 122.837C267.565 122.154 268.464 121.795 268.464 121.795L269.291 123.25C269.291 123.25 264.694 124.994 259.67 126.221Z" fill="#B7C7E5"/>
<path d="M259.67 127.747C258.416 127.255 257.36 128.305 256.182 129.761C255.005 131.216 251.416 138.434 250.877 138.683C250.339 138.932 250.159 138.165 249.172 138.683C248.185 139.201 247.796 139.01 247.078 138.786C246.36 138.562 244.117 138.337 244.117 138.337C244.117 138.337 241.276 139.324 242.652 142.374C243.968 142.867 246.612 144.101 249.501 145.054C251.325 145.656 252.776 145.964 254.39 145.054C256.005 144.144 261.653 138.601 262.276 135.85C262.9 133.1 262.72 128.943 259.67 127.747Z" fill="#B7C7E5"/>
</svg>
