<svg width="34" height="25" viewBox="0 0 34 25" fill="none" xmlns="http://www.w3.org/2000/svg">
<path opacity="0.2" d="M7.21753 4.81095C7.37753 4.96095 7.32753 5.16095 6.93753 5.59095C6.54753 6.02095 6.34753 6.09095 6.18753 5.94095C6.02753 5.79095 6.08753 5.59095 6.46753 5.16095C6.84753 4.74095 7.04753 4.66095 7.21753 4.81095ZM26.8575 6.23093C30.5475 9.67093 32.1775 13.9309 30.4975 15.7409C30.3675 15.8809 30.2175 16.0009 30.0575 16.1009C28.1075 17.3309 24.1075 15.9109 20.7475 12.7709C18.9475 11.1009 17.5875 9.18093 16.9075 7.38093C16.2275 5.59093 16.3075 4.13094 17.1075 3.27094C17.2375 3.13094 17.3875 3.01095 17.5475 2.91095C19.4875 1.68095 23.4975 3.11094 26.8575 6.24094V6.23093ZM27.3175 15.8409C26.8575 14.0509 25.4775 11.8809 23.4375 9.98093C21.3675 8.05093 19.0875 6.83093 17.2575 6.51093C17.7175 8.30093 19.0875 10.4609 21.1375 12.3709C23.2075 14.3009 25.4875 15.5209 27.3175 15.8509V15.8409ZM32.5975 18.5209L29.7475 21.6409L29.2575 22.1709L28.7475 22.7309L27.5075 24.0809C25.1875 25.2909 19.2575 24.3009 14.1775 19.5709C11.8875 17.4409 10.1875 15.0709 9.21753 12.8809C9.21753 12.8809 7.16751 9.36095 4.63751 7.66095C4.40751 7.50095 4.15752 7.36095 3.89752 7.22095L3.83753 7.30094C2.91753 6.80094 1.88753 6.39093 1.02753 6.10093C0.577527 5.95093 0.227515 5.59093 0.0775153 5.13093C-0.0724847 4.68093 -0.0024823 4.18093 0.267518 3.79093L2.42752 0.660955C2.81752 0.100955 3.52752 -0.139062 4.17752 0.0809376C5.07752 0.390938 6.45753 0.950945 8.02753 1.90094L7.94751 2.00095C8.26751 2.19095 8.58752 2.40093 8.92752 2.63093C9.71752 3.17093 10.4675 3.81095 11.1375 4.47095L14.1875 1.36094C16.5475 -1.18906 22.5875 0.600947 27.6775 5.34095C32.7575 10.0809 35.2175 16.2409 32.5975 18.5109V18.5209ZM7.43753 4.56095C7.06753 4.22095 6.60751 4.33093 6.13751 4.85093C5.66751 5.37093 5.59753 5.84094 5.96753 6.18094C6.33753 6.52094 6.80753 6.41093 7.27753 5.89093C7.74753 5.37093 7.81751 4.90095 7.44751 4.56095H7.43753ZM7.85751 4.22095L9.11752 2.84095L8.82752 2.62095L7.56754 4.00095L7.85751 4.22095ZM9.95752 10.0209L11.3675 8.47095L11.0775 8.21094L10.2775 8.05094L10.2175 8.40094L10.7475 8.50095L9.62753 9.73093L9.94751 10.0209H9.95752ZM14.1175 12.7809C13.9175 12.5509 13.6775 12.4709 13.4175 12.5109L13.4475 12.8709C13.6375 12.8509 13.7475 12.881 13.8575 13.001C13.9675 13.131 13.9775 13.3009 13.8575 13.4309C13.6675 13.6409 13.4275 13.6509 12.4775 13.6409L12.2575 13.8809L13.1375 14.9009L13.3975 14.6809L12.8175 14.0109C13.6575 14.0509 13.9475 14.011 14.1775 13.751C14.3975 13.511 14.4175 13.1209 14.1175 12.7809ZM17.7275 16.8709C17.5275 16.6909 17.3075 16.6109 17.0375 16.6209V16.9509C17.2175 16.9509 17.3475 16.9909 17.4675 17.1009C17.5975 17.2209 17.6175 17.3709 17.5075 17.4909C17.3775 17.6309 17.2075 17.6209 17.0675 17.4909L16.9875 17.411L16.7375 17.6009L16.8675 17.721C17.0375 17.871 17.0775 18.0309 16.9175 18.2009C16.7775 18.3509 16.5875 18.3509 16.4375 18.2009C16.3175 18.0909 16.2575 17.9609 16.2575 17.7609H15.9175C15.9075 18.0309 15.9975 18.271 16.2175 18.471C16.5875 18.811 16.9875 18.7809 17.2275 18.5209C17.4475 18.2809 17.3975 18.0109 17.2275 17.8209C17.4575 17.9409 17.6875 17.9209 17.8675 17.7309C18.0675 17.5109 18.0475 17.1809 17.7275 16.8809V16.8709ZM21.2275 21.0409L22.5075 20.411L22.2675 20.1209L20.7975 20.8309L20.5975 21.0509L21.3875 21.501L21.0775 21.8509L21.4575 22.0709L21.7775 21.721L21.9975 21.8409L22.2275 21.5909L22.0075 21.471L22.3575 21.0909L22.0175 20.9009L21.6275 21.2609L21.2375 21.0409H21.2275ZM27.2375 21.7109L26.2475 21.6509L25.5075 22.471H25.7675C25.8875 22.431 25.9575 22.4209 26.0375 22.4209C26.1975 22.4209 26.2475 22.4909 26.0775 22.6809C25.9175 22.8609 25.7075 22.961 25.5075 22.971C25.3575 22.971 25.2875 22.9309 25.2775 22.8309L24.8975 23.0109C24.9175 23.1409 25.0275 23.2209 25.3075 23.2109C25.7475 23.1909 26.2175 22.9709 26.4675 22.6809C26.7175 22.3909 26.6575 22.2209 26.3675 22.2109C26.2775 22.2109 26.1775 22.221 26.0575 22.251L26.3675 21.911L26.9875 21.941L27.2175 21.721L27.2375 21.7109ZM32.4975 12.4309C31.6175 10.1009 29.8575 7.62095 27.5475 5.47095C23.1975 1.42095 17.9875 -0.409048 15.4175 1.22095C15.1975 1.36095 14.9975 1.53095 14.8175 1.72095C13.7275 2.89095 13.6175 4.83094 14.5075 7.18094C15.3875 9.51094 17.1475 11.9909 19.4575 14.1409C23.8075 18.1909 29.0175 20.0209 31.5875 18.3909C31.8075 18.2509 32.0075 18.0809 32.1875 17.8909C33.2775 16.7209 33.3875 14.7809 32.4975 12.4309ZM32.3175 12.4909C33.1775 14.7809 33.0775 16.6509 32.0475 17.7609C31.8775 17.9409 31.6875 18.1009 31.4775 18.2309C28.9875 19.8109 23.8775 18.001 19.5875 14.001C17.2975 11.871 15.5575 9.42095 14.6875 7.12095C13.8275 4.83095 13.9275 2.96093 14.9575 1.85093C15.1275 1.67093 15.3175 1.51093 15.5275 1.38093C18.0175 -0.199075 23.1275 1.61094 27.4175 5.61094C29.7075 7.74094 31.4475 10.1909 32.3175 12.4909ZM31.6675 12.001C30.8875 9.91095 29.3175 7.71095 27.2575 5.78095C23.3775 2.16095 18.7175 0.540951 16.4275 2.00095C16.2275 2.13095 16.0475 2.28093 15.8875 2.45093C14.9175 3.49093 14.8075 5.23094 15.5975 7.33094C16.3775 9.42094 17.9475 11.6209 20.0075 13.5509C23.8875 17.1709 28.5475 18.7909 30.8375 17.3309C31.0375 17.2009 31.2175 17.0509 31.3775 16.8809C32.3475 15.8409 32.4575 14.101 31.6675 12.001ZM31.5075 12.0609C32.2775 14.1009 32.1875 15.7809 31.2575 16.7709C31.1075 16.9309 30.9375 17.071 30.7475 17.191C28.5175 18.611 23.9475 16.9909 20.1275 13.4309C18.0875 11.5309 16.5375 9.34095 15.7575 7.28095C14.9875 5.24095 15.0775 3.56093 16.0075 2.57093C16.1575 2.41093 16.3275 2.27094 16.5175 2.15094C18.7475 0.730945 23.3175 2.35095 27.1375 5.91095C29.1775 7.81095 30.7275 10.0009 31.5075 12.0609ZM26.9675 6.10093C23.5475 2.92093 19.4575 1.48095 17.4475 2.75095C17.2775 2.86095 17.1175 2.99094 16.9775 3.14094C16.1275 4.05094 16.0375 5.58094 16.7375 7.43094C17.4275 9.26094 18.8075 11.2009 20.6275 12.8909C24.0475 16.0709 28.1375 17.5109 30.1475 16.2409C30.3175 16.1309 30.4775 16.0009 30.6175 15.8509C32.3675 13.9809 30.7275 9.61093 26.9675 6.10093Z" fill="white"/>
</svg>
