<svg width="45" height="36" viewBox="0 0 45 36" fill="none" xmlns="http://www.w3.org/2000/svg">
<path opacity="0.2" d="M8.64001 27.35H9.92001V26.01H6.34V27.35H7.62V31.17L8.12 32.08L8.62 31.17V27.35H8.64001ZM8.42001 31.56L8.20001 31.95V27.34H8.42001V31.55V31.56ZM43.48 13.68H42.93C42.57 13.68 42.28 13.97 42.28 14.33V15.54H41.83V13.21C41.83 9.56999 39.76 7.85999 37.69 7.85999V32.08H36.54V7.85999H31.14V7.34998H33.37C33.92 7.34998 34.37 6.89998 34.37 6.34998V1C34.37 0.45 33.92 0 33.37 0H15.95C15.4 0 14.95 0.45 14.95 1V6.34998C14.95 6.89998 15.4 7.34998 15.95 7.34998H18.18V7.85999H11.68V6.78998H7.09V7.85999H4.12V9.88998C3.11 9.90998 2.29001 10.73 2.29001 11.75V26.01H12.1V22.62H25.05C25.52 23.42 25.79 24.34 25.79 25.33V32.08H0.269989V35.51H42.98V32.08H41.84V18.35H42.29V19.56C42.29 19.92 42.58 20.21 42.94 20.21H43.49C43.85 20.21 44.14 19.92 44.14 19.56V14.33C44.14 13.97 43.85 13.68 43.49 13.68H43.48ZM19.12 6.34998V5.19H20.29V6.34998H19.12ZM20.76 6.34998V5.19H21.93V6.34998H20.76ZM22.4 6.34998V5.19H23.56V6.34998H22.4ZM24.04 6.34998V5.19H25.2V6.34998H24.04ZM25.68 6.34998V5.19H26.85V6.34998H25.68ZM27.32 6.34998V5.19H28.49V6.34998H27.32ZM28.96 6.34998V5.19H30.12V6.34998H28.96ZM32.25 0.359985H33.79V1.89999H32.25V0.359985ZM32.25 2.12H33.79V3.66H32.25V2.12ZM30.47 0.359985H32.01V1.89999H30.47V0.359985ZM30.47 2.12H32.01V3.66H30.47V2.12ZM15.86 0.359985H30.12V4.34H15.86V0.359985ZM17.04 6.34998H15.88V5.19H17.04V6.34998ZM17.51 6.34998V5.19H18.67V6.34998H17.51ZM14.05 14.12V14.81H11.71V14.12H14.05ZM11.71 13.42V12.73H14.05V13.42H11.71ZM31.24 31.4C29.49 31.4 28.07 29.98 28.07 28.23C28.07 26.48 29.49 25.06 31.24 25.06C32.99 25.06 34.41 26.48 34.41 28.23C34.41 29.98 32.99 31.4 31.24 31.4ZM33.48 18.36C34.72 19.6 34.72 21.61 33.48 22.85C32.24 24.09 30.23 24.09 28.99 22.85C27.75 21.61 27.75 19.6 28.99 18.36C30.23 17.12 32.24 17.12 33.48 18.36ZM14.06 11.35V12.04H11.72V11.35H14.06ZM17.35 21.95H15.56V20.61H17.35V21.95ZM32.08 28.24C32.08 28.7 31.7 29.08 31.24 29.08C30.78 29.08 30.4 28.7 30.4 28.24C30.4 27.78 30.78 27.4 31.24 27.4C31.7 27.4 32.08 27.78 32.08 28.24ZM31.32 26.06H31.16V25.27H31.32V26.06ZM30.42 26.22L30.15 25.48L30.3 25.43L30.57 26.17L30.42 26.22ZM29.39 25.91L29.9 26.51L29.78 26.61L29.27 26L29.39 25.9V25.91ZM28.71 26.68L29.39 27.07L29.31 27.21L28.63 26.82L28.71 26.68ZM29.08 27.93L28.3 27.79L28.33 27.63L29.11 27.77L29.08 27.93ZM29.11 28.69L28.33 28.83L28.3 28.67L29.08 28.53L29.11 28.69ZM29.31 29.25L29.39 29.39L28.71 29.78L28.63 29.64L29.31 29.25ZM30.64 21.2C30.31 20.87 30.31 20.34 30.64 20.01C30.97 19.68 31.5 19.68 31.83 20.01C32.16 20.34 32.16 20.87 31.83 21.2C31.5 21.53 30.97 21.53 30.64 21.2ZM32.83 22.09L33.39 22.65L33.28 22.76L32.72 22.2L32.83 22.09ZM33.24 21.45L33.95 21.78L33.88 21.93L33.17 21.6L33.24 21.45ZM33.41 20.71L34.2 20.78V20.94L33.4 20.87V20.71H33.41ZM33.32 19.96L34.08 19.76L34.12 19.91L33.36 20.11L33.32 19.96ZM32.97 19.28L33.62 18.83L33.71 18.96L33.06 19.41L32.97 19.28ZM32.55 18.86L32.42 18.77L32.87 18.12L33 18.21L32.55 18.86ZM31.87 18.52L31.72 18.48L31.92 17.72L32.07 17.76L31.87 18.52Z" fill="white"/>
</svg>
