<svg width="41" height="37" viewBox="0 0 41 37" fill="none" xmlns="http://www.w3.org/2000/svg">
<path opacity="0.2" d="M40.33 20.98V36.21H0V24.05H1.62V22.61H2.95001L3.01999 20.63L3.09 18.64L3.16 16.65L3.23001 14.66L3.29999 12.67L3.37 10.68L3.44 8.69H5.75L5.82001 10.68L5.89001 12.67L5.95999 14.66L6.03 16.65L6.10001 18.64L6.17001 20.63L6.23999 22.61H7.79001V24.05H9.41L15.6 20.97V24.05L21.79 20.97V24.05V9.86002C21.79 8.42002 23.71 7.25 26.08 7.25C28.45 7.25 30.38 8.42002 30.38 9.86002V22.86L34.15 20.98V16.88C34.15 16.53 33.87 16.25 33.52 16.25H30.38V14.87H31.82H33.95C34.82 14.87 35.53 15.58 35.53 16.45V23.38L40.36 20.98H40.33ZM5.10999 7.14001C5.52999 7.14001 5.88 6.8 5.88 6.38C5.88 6.13 5.75001 5.92 5.57001 5.78C5.66001 5.8 5.73999 5.81 5.82999 5.81C6.16999 5.81 6.47999 5.64001 6.67999 5.39001C6.89999 5.55001 7.18 5.64001 7.47 5.64001C7.78 5.64001 8.06001 5.54003 8.29001 5.37003C8.23001 5.54003 8.20001 5.71001 8.20001 5.89001C8.20001 6.80001 8.94 7.54001 9.84 7.54001C10.62 7.54001 11.27 6.99002 11.44 6.27002C11.71 6.41002 12 6.49002 12.32 6.49002C12.92 6.49002 13.44 6.21001 13.8 5.79001C14.16 6.52001 14.9 7.02002 15.76 7.02002C16.95 7.02002 17.92 6.06003 17.95 4.87003C18.32 5.07003 18.73 5.19 19.18 5.19C20.61 5.19 21.77 4.03001 21.77 2.60001C21.77 1.17001 20.61 0 19.18 0C17.75 0 16.59 1.16001 16.59 2.60001C16.59 2.67001 16.61 2.74002 16.61 2.80002C16.35 2.69002 16.07 2.63 15.77 2.63C15.6 2.63 15.44 2.65 15.28 2.69C15.3 2.59 15.31 2.48003 15.31 2.37003C15.31 1.31003 14.46 0.460022 13.4 0.460022C12.34 0.460022 11.49 1.32003 11.49 2.37003C11.49 2.51003 11.51 2.64002 11.53 2.77002C11.43 2.81002 11.34 2.86001 11.25 2.92001C10.96 2.44001 10.44 2.11002 9.84 2.11002C9.15 2.11002 8.56001 2.54001 8.32001 3.14001C8.08001 2.96001 7.79 2.84 7.47 2.84C6.89 2.84 6.38999 3.20001 6.17999 3.70001C6.06999 3.66001 5.94999 3.64001 5.82999 3.64001C5.22999 3.64001 4.75 4.13 4.75 4.72C4.75 5.1 4.95 5.44 5.25 5.63C5.21 5.63 5.17 5.60001 5.12 5.60001C4.7 5.60001 4.35999 5.94003 4.35999 6.37003C4.35999 6.80003 4.7 7.13 5.12 7.13L5.10999 7.14001Z" fill="white"/>
</svg>
