<svg width="240" height="59" viewBox="0 0 240 59" fill="none" xmlns="http://www.w3.org/2000/svg">
<g clip-path="url(#clip0_234_202)">
<path d="M100.253 10.8738C100.253 10.8738 106.793 5.99981 107.03 5.98976C107.267 5.9787 107.17 6.62133 107.089 6.79275C107.009 6.96412 105.432 9.23434 105.432 9.23434C105.432 9.23434 111.042 7.5889 111.235 7.80018C111.428 8.01253 110.852 8.6086 110.852 8.6086C110.852 8.6086 109.147 10.4592 108.851 10.8013C108.563 11.1333 108.186 11.6221 108.186 11.6221L107.602 12.4505L108.07 12.5106L108.927 12.5691L109.765 12.6027L111.151 12.5671C111.151 12.5671 111.323 12.7514 110.918 13.0323L110.398 13.3923L105.273 16.7501C105.273 16.7501 104.457 16.7779 104.456 16.6636C104.456 16.6021 104.012 14.6535 102.978 13.3493C102.086 12.2244 101.3 11.7836 100.723 11.3653C100.499 11.1307 100.067 11.0183 100.255 10.8769L100.253 10.8738Z" fill="#43D0FF"/>
<path d="M100.631 10.8622C100.631 10.8622 106.583 6.13485 106.796 6.21885C106.988 6.29423 106.93 6.66837 106.856 6.83509C106.781 7.00187 104.441 9.94249 104.85 10.1815C105.12 10.3403 105.355 10.093 106.754 9.64676C108.369 9.13117 110.753 8.33221 110.789 8.52785C110.809 8.63901 109.073 10.4049 108.805 10.751C108.549 11.0814 108.105 11.6501 108.105 11.6501C108.105 11.6501 106.86 13.0984 107.218 13.2602C107.858 13.5489 108.324 13.4537 108.695 13.439C108.966 13.4283 109.762 13.2623 109.762 13.2623L110.916 13.0304L110.824 13.0707L110.396 13.3905C110.396 13.3905 106.645 16.1133 105.27 16.7482C105.138 16.809 104.802 17.0075 104.65 16.7855C104.616 16.7354 104.324 14.7084 103.293 13.4029C102.403 12.2758 100.826 11.2269 101.038 11.4189C101.285 11.5992 100.451 10.9977 100.631 10.8622Z" fill="#43D0FF"/>
<path d="M4.34358 33.3399C3.43709 33.3399 2.78241 33.214 2.37953 32.9622C1.97664 32.6852 1.72484 32.3201 1.62412 31.8669C1.54858 31.4136 1.51081 30.9478 1.51081 30.4694V9.80905C1.51081 9.30545 1.54858 8.83962 1.62412 8.41155C1.72484 7.98349 1.97664 7.63097 2.37953 7.35399C2.78241 7.077 3.44968 6.93851 4.38135 6.93851C5.3382 6.93851 6.00547 7.077 6.38318 7.35399C6.78606 7.63097 7.02527 7.98349 7.10081 8.41155C7.20153 8.83962 7.25189 9.31804 7.25189 9.84682V30.5072C7.25189 30.9856 7.20153 31.4514 7.10081 31.9047C7.00009 32.3327 6.74829 32.6852 6.34541 32.9622C5.9677 33.214 5.30043 33.3399 4.34358 33.3399ZM19.0144 33.6421C18.3345 33.6421 17.5917 33.5666 16.7859 33.4155C16.0053 33.2644 15.2374 33.0504 14.4819 32.7734C13.7265 32.4712 13.097 32.1313 12.5934 31.7536C12.0898 31.3507 11.8003 30.8975 11.7247 30.3939C11.6744 30.142 11.6744 29.8777 11.7247 29.6007C11.8003 29.2985 11.9262 28.9964 12.1024 28.6942C12.2787 28.3668 12.4927 28.0269 12.7445 27.6744C12.946 27.3974 13.1726 27.2211 13.4244 27.1456C13.6762 27.0701 13.9658 27.0827 14.2931 27.1834C14.696 27.2589 15.0989 27.3974 15.5017 27.5989C15.9298 27.7751 16.3453 27.9766 16.7482 28.2032C17.1762 28.4046 17.6169 28.5935 18.0701 28.7697C18.5234 28.9208 18.9892 28.9964 19.4676 28.9964C20.1727 28.9964 20.714 28.8956 21.0917 28.6942C21.4946 28.4676 21.6961 28.1654 21.6961 27.7877C21.6961 27.5107 21.6079 27.2841 21.4317 27.1078C21.2806 26.9316 21.054 26.7805 20.7518 26.6546C20.4748 26.5035 20.1475 26.3776 19.7698 26.2769C19.3921 26.1762 18.9766 26.0754 18.5234 25.9747C18.0953 25.8488 17.6547 25.7229 17.2014 25.597C16.5719 25.4208 15.9676 25.1941 15.3884 24.9172C14.8093 24.6402 14.2805 24.2877 13.8021 23.8596C13.3237 23.4064 12.946 22.865 12.669 22.2355C12.392 21.5808 12.2535 20.7876 12.2535 19.8559C12.2535 18.6221 12.5431 17.5897 13.1222 16.7588C13.7014 15.9278 14.5449 15.2983 15.6528 14.8703C16.7608 14.417 18.1079 14.1904 19.6942 14.1904C20.1475 14.1904 20.6007 14.2156 21.054 14.2659C21.5072 14.3163 21.9479 14.4044 22.3759 14.5303C22.8292 14.6562 23.2698 14.8073 23.6979 14.9836C24.126 15.1598 24.554 15.3739 24.9821 15.6257C25.7375 15.9782 26.1278 16.4566 26.153 17.0609C26.1781 17.6653 25.9641 18.2822 25.5109 18.9117C25.2339 19.3398 24.9443 19.6545 24.6422 19.8559C24.34 20.0322 24.0252 20.0826 23.6979 20.007C23.295 19.9063 22.8544 19.7426 22.3759 19.516C21.9227 19.2894 21.4317 19.0754 20.9029 18.8739C20.3993 18.6725 19.8957 18.5718 19.3921 18.5718C18.964 18.5718 18.5989 18.6347 18.2967 18.7606C17.9946 18.8613 17.768 19.0124 17.6169 19.2139C17.4658 19.3901 17.3903 19.6041 17.3903 19.8559C17.3903 20.1833 17.4784 20.4477 17.6547 20.6491C17.8561 20.8254 18.1205 20.9765 18.4478 21.1024C18.7752 21.2283 19.1529 21.3416 19.5809 21.4423C20.009 21.543 20.4748 21.6437 20.9784 21.7445C21.6583 21.8704 22.3508 22.0466 23.0558 22.2732C23.786 22.4747 24.4407 22.7768 25.0199 23.1797C25.6242 23.5826 26.1026 24.124 26.4551 24.8039C26.8328 25.4837 27.0217 26.3776 27.0217 27.4855C27.0217 29.4748 26.3292 30.9982 24.9443 32.0557C23.5594 33.1133 21.5828 33.6421 19.0144 33.6421ZM40.5201 33.3399C39.2359 33.3399 38.128 33.2014 37.1963 32.9245C36.2899 32.6475 35.5344 32.2194 34.9301 31.6403C34.3258 31.0611 33.8726 30.3309 33.5704 29.4496C33.2934 28.5431 33.1549 27.4729 33.1549 26.2391V10.9044C33.1549 10.4008 33.1927 9.94754 33.2682 9.54466C33.369 9.14178 33.6208 8.81444 34.0236 8.56263C34.4265 8.28565 35.0812 8.14716 35.9877 8.14716C36.8942 8.14716 37.5489 8.28565 37.9517 8.56263C38.3546 8.83962 38.5938 9.19214 38.6694 9.6202C38.7701 10.0483 38.8205 10.5141 38.8205 11.0177V26.0125C38.8205 26.4154 38.8456 26.7553 38.896 27.0323C38.9715 27.2841 39.0723 27.473 39.1982 27.5989C39.3241 27.7248 39.5003 27.8129 39.7269 27.8632C39.9536 27.9136 40.2306 27.9388 40.5579 27.9388C41.1119 27.9388 41.6029 27.9891 42.0309 28.0899C42.459 28.1906 42.7863 28.4172 43.013 28.7697C43.2648 29.1223 43.3907 29.714 43.3907 30.5449C43.3907 31.4514 43.2522 32.1061 42.9752 32.509C42.6982 32.9119 42.3331 33.1511 41.8799 33.2266C41.4518 33.3022 40.9985 33.3399 40.5201 33.3399ZM31.984 14.757H36.1388L41.3511 14.6059C41.8295 14.6059 42.2827 14.6562 42.7108 14.757C43.1389 14.8325 43.4914 15.0717 43.7684 15.4746C44.0454 15.8775 44.1838 16.5448 44.1838 17.4764C44.1838 18.3325 44.0454 18.962 43.7684 19.3649C43.5166 19.7678 43.1766 20.0322 42.7486 20.1581C42.3205 20.2588 41.8547 20.3092 41.3511 20.3092L36.4032 20.1959H31.833C31.1027 20.1707 30.5865 19.9567 30.2844 19.5538C30.0074 19.1257 29.8689 18.4207 29.8689 17.4386C29.8689 16.5322 30.0452 15.8649 30.3977 15.4368C30.7502 14.9836 31.279 14.757 31.984 14.757ZM63.6405 33.3022C62.7089 33.3022 62.0164 33.1385 61.5632 32.8111C61.1351 32.4838 60.9211 32.0809 60.9211 31.6025L61.2988 30.9604C61.1477 31.2122 60.8581 31.527 60.4301 31.9047C60.002 32.2572 59.448 32.5845 58.7682 32.8867C58.0883 33.1637 57.2448 33.3022 56.2376 33.3022C55.0793 33.3022 53.9714 33.0504 52.9138 32.5468C51.8814 32.0432 50.9623 31.3507 50.1566 30.4694C49.3508 29.5629 48.7087 28.5431 48.2303 27.41C47.777 26.2769 47.5504 25.0808 47.5504 23.8218C47.5504 22.588 47.777 21.4171 48.2303 20.3092C48.7087 19.1761 49.3508 18.1815 50.1566 17.3253C50.9875 16.444 51.9192 15.7516 52.9516 15.248C53.9839 14.7444 55.0793 14.4926 56.2376 14.4926C57.1692 14.4926 57.9624 14.6311 58.6171 14.908C59.2718 15.1598 59.8132 15.462 60.2412 15.8145C60.6945 16.167 61.0344 16.507 61.261 16.8343L60.9589 16.3055C60.9337 15.7012 61.1351 15.248 61.5632 14.9458C62.0164 14.6185 62.7215 14.4548 63.6783 14.4548C64.5848 14.4548 65.2269 14.5933 65.6046 14.8703C66.0075 15.1473 66.2467 15.5124 66.3222 15.9656C66.423 16.4188 66.4733 16.8973 66.4733 17.4009V30.4316C66.4733 30.91 66.423 31.3759 66.3222 31.8291C66.2467 32.2824 66.0075 32.6475 65.6046 32.9245C65.2269 33.1763 64.5722 33.3022 63.6405 33.3022ZM57.0685 27.6744C57.7232 27.6744 58.3149 27.5107 58.8437 27.1834C59.3977 26.8309 59.8257 26.365 60.1279 25.7859C60.4553 25.2067 60.6189 24.5646 60.6189 23.8596C60.6189 23.1294 60.4553 22.4873 60.1279 21.9333C59.8006 21.3542 59.3599 20.9009 58.806 20.5736C58.252 20.2211 57.6477 20.0448 56.993 20.0448C56.2628 20.0448 55.6081 20.2211 55.0289 20.5736C54.475 20.9261 54.0217 21.3919 53.6692 21.9711C53.3419 22.5502 53.1782 23.2049 53.1782 23.9351C53.1782 24.615 53.3419 25.2445 53.6692 25.8236C54.0217 26.3776 54.4876 26.8309 55.0667 27.1834C55.671 27.5107 56.3383 27.6744 57.0685 27.6744ZM74.1587 33.3399C73.2522 33.3399 72.5975 33.2014 72.1946 32.9245C71.7917 32.6475 71.5525 32.295 71.477 31.8669C71.4015 31.4388 71.3637 30.973 71.3637 30.4694V17.2498C71.3637 16.7462 71.4015 16.2929 71.477 15.8901C71.5777 15.462 71.8295 15.1221 72.2324 14.8703C72.6353 14.5933 73.3026 14.4548 74.2342 14.4548C75.1659 14.4548 75.8458 14.6436 76.2738 15.0214C76.7019 15.3739 76.9159 15.9656 76.9159 16.7966L76.4249 17.212C76.4753 17.0861 76.6263 16.8721 76.8781 16.5699C77.1299 16.2678 77.4573 15.953 77.8602 15.6257C78.2631 15.2983 78.7289 15.0214 79.2577 14.7947C79.8116 14.5429 80.4034 14.417 81.0329 14.417C81.8638 14.417 82.6066 14.5429 83.2613 14.7947C83.9412 15.0214 84.5455 15.3739 85.0743 15.8523C85.6283 16.3055 86.1067 16.8847 86.5096 17.5897C86.8621 17.0861 87.2902 16.5951 87.7938 16.1167C88.2974 15.6383 88.8891 15.2354 89.569 14.908C90.274 14.5807 91.0546 14.417 91.9107 14.417C93.3712 14.417 94.605 14.7947 95.6122 15.5501C96.6446 16.2804 97.4252 17.3379 97.954 18.7228C98.4827 20.1077 98.7471 21.7822 98.7471 23.7463V30.5072C98.7471 30.9856 98.6968 31.4514 98.5961 31.9047C98.5205 32.3327 98.2813 32.6852 97.8784 32.9622C97.4755 33.214 96.8083 33.3399 95.8766 33.3399C94.9449 33.3399 94.2777 33.2014 93.8748 32.9245C93.4971 32.6475 93.2579 32.295 93.1571 31.8669C93.0816 31.4136 93.0438 30.9478 93.0438 30.4694V23.7085C93.0438 22.9279 92.9557 22.2732 92.7794 21.7445C92.6032 21.2157 92.3262 20.8128 91.9485 20.5358C91.596 20.2336 91.1427 20.0826 90.5888 20.0826C90.0096 20.0826 89.5186 20.2211 89.1157 20.498C88.7128 20.7498 88.4107 21.1527 88.2092 21.7067C88.0078 22.2355 87.9071 22.9153 87.9071 23.7463V30.5072C87.9071 31.0108 87.8441 31.4892 87.7182 31.9424C87.5923 32.3705 87.3153 32.723 86.8873 33C86.4844 33.2518 85.8297 33.3651 84.9232 33.3399C84.0167 33.3148 83.3746 33.1637 82.9969 32.8867C82.6192 32.6097 82.3926 32.2572 82.3171 31.8291C82.2415 31.3759 82.2038 30.9226 82.2038 30.4694V23.7085C82.2038 22.9279 82.1156 22.2732 81.9394 21.7445C81.7631 21.1905 81.4987 20.775 81.1462 20.498C80.7937 20.2211 80.3278 20.0826 79.7487 20.0826C79.1192 20.0826 78.603 20.2462 78.2001 20.5736C77.7972 20.9009 77.4951 21.3416 77.2936 21.8955C77.1174 22.4243 77.0292 23.0286 77.0292 23.7085V30.5072C77.0292 31.0108 76.9789 31.4766 76.8781 31.9047C76.8026 32.3327 76.5634 32.6852 76.1605 32.9622C75.7576 33.214 75.0904 33.3399 74.1587 33.3399Z" fill="#737FF6"/>
<path d="M4.34358 33.3399C3.43709 33.3399 2.78241 33.214 2.37953 32.9622C1.97664 32.6852 1.72484 32.3201 1.62412 31.8669C1.54858 31.4136 1.51081 30.9478 1.51081 30.4694V9.80905C1.51081 9.30545 1.54858 8.83962 1.62412 8.41155C1.72484 7.98349 1.97664 7.63097 2.37953 7.35399C2.78241 7.077 3.44968 6.93851 4.38135 6.93851C5.3382 6.93851 6.00547 7.077 6.38318 7.35399C6.78606 7.63097 7.02527 7.98349 7.10081 8.41155C7.20153 8.83962 7.25189 9.31804 7.25189 9.84682V30.5072C7.25189 30.9856 7.20153 31.4514 7.10081 31.9047C7.00009 32.3327 6.74829 32.6852 6.34541 32.9622C5.9677 33.214 5.30043 33.3399 4.34358 33.3399ZM19.0144 33.6421C18.3345 33.6421 17.5917 33.5666 16.7859 33.4155C16.0053 33.2644 15.2374 33.0504 14.4819 32.7734C13.7265 32.4712 13.097 32.1313 12.5934 31.7536C12.0898 31.3507 11.8003 30.8975 11.7247 30.3939C11.6744 30.142 11.6744 29.8777 11.7247 29.6007C11.8003 29.2985 11.9262 28.9964 12.1024 28.6942C12.2787 28.3668 12.4927 28.0269 12.7445 27.6744C12.946 27.3974 13.1726 27.2211 13.4244 27.1456C13.6762 27.0701 13.9658 27.0827 14.2931 27.1834C14.696 27.2589 15.0989 27.3974 15.5017 27.5989C15.9298 27.7751 16.3453 27.9766 16.7482 28.2032C17.1762 28.4046 17.6169 28.5935 18.0701 28.7697C18.5234 28.9208 18.9892 28.9964 19.4676 28.9964C20.1727 28.9964 20.714 28.8956 21.0917 28.6942C21.4946 28.4676 21.6961 28.1654 21.6961 27.7877C21.6961 27.5107 21.6079 27.2841 21.4317 27.1078C21.2806 26.9316 21.054 26.7805 20.7518 26.6546C20.4748 26.5035 20.1475 26.3776 19.7698 26.2769C19.3921 26.1762 18.9766 26.0754 18.5234 25.9747C18.0953 25.8488 17.6547 25.7229 17.2014 25.597C16.5719 25.4208 15.9676 25.1941 15.3884 24.9172C14.8093 24.6402 14.2805 24.2877 13.8021 23.8596C13.3237 23.4064 12.946 22.865 12.669 22.2355C12.392 21.5808 12.2535 20.7876 12.2535 19.8559C12.2535 18.6221 12.5431 17.5897 13.1222 16.7588C13.7014 15.9278 14.5449 15.2983 15.6528 14.8703C16.7608 14.417 18.1079 14.1904 19.6942 14.1904C20.1475 14.1904 20.6007 14.2156 21.054 14.2659C21.5072 14.3163 21.9479 14.4044 22.3759 14.5303C22.8292 14.6562 23.2698 14.8073 23.6979 14.9836C24.126 15.1598 24.554 15.3739 24.9821 15.6257C25.7375 15.9782 26.1278 16.4566 26.153 17.0609C26.1781 17.6653 25.9641 18.2822 25.5109 18.9117C25.2339 19.3398 24.9443 19.6545 24.6422 19.8559C24.34 20.0322 24.0252 20.0826 23.6979 20.007C23.295 19.9063 22.8544 19.7426 22.3759 19.516C21.9227 19.2894 21.4317 19.0754 20.9029 18.8739C20.3993 18.6725 19.8957 18.5718 19.3921 18.5718C18.964 18.5718 18.5989 18.6347 18.2967 18.7606C17.9946 18.8613 17.768 19.0124 17.6169 19.2139C17.4658 19.3901 17.3903 19.6041 17.3903 19.8559C17.3903 20.1833 17.4784 20.4477 17.6547 20.6491C17.8561 20.8254 18.1205 20.9765 18.4478 21.1024C18.7752 21.2283 19.1529 21.3416 19.5809 21.4423C20.009 21.543 20.4748 21.6437 20.9784 21.7445C21.6583 21.8704 22.3508 22.0466 23.0558 22.2732C23.786 22.4747 24.4407 22.7768 25.0199 23.1797C25.6242 23.5826 26.1026 24.124 26.4551 24.8039C26.8328 25.4837 27.0217 26.3776 27.0217 27.4855C27.0217 29.4748 26.3292 30.9982 24.9443 32.0557C23.5594 33.1133 21.5828 33.6421 19.0144 33.6421ZM40.5201 33.3399C39.2359 33.3399 38.128 33.2014 37.1963 32.9245C36.2899 32.6475 35.5344 32.2194 34.9301 31.6403C34.3258 31.0611 33.8726 30.3309 33.5704 29.4496C33.2934 28.5431 33.1549 27.4729 33.1549 26.2391V10.9044C33.1549 10.4008 33.1927 9.94754 33.2682 9.54466C33.369 9.14178 33.6208 8.81444 34.0236 8.56263C34.4265 8.28565 35.0812 8.14716 35.9877 8.14716C36.8942 8.14716 37.5489 8.28565 37.9517 8.56263C38.3546 8.83962 38.5938 9.19214 38.6694 9.6202C38.7701 10.0483 38.8205 10.5141 38.8205 11.0177V26.0125C38.8205 26.4154 38.8456 26.7553 38.896 27.0323C38.9715 27.2841 39.0723 27.473 39.1982 27.5989C39.3241 27.7248 39.5003 27.8129 39.7269 27.8632C39.9536 27.9136 40.2306 27.9388 40.5579 27.9388C41.1119 27.9388 41.6029 27.9891 42.0309 28.0899C42.459 28.1906 42.7863 28.4172 43.013 28.7697C43.2648 29.1223 43.3907 29.714 43.3907 30.5449C43.3907 31.4514 43.2522 32.1061 42.9752 32.509C42.6982 32.9119 42.3331 33.1511 41.8799 33.2266C41.4518 33.3022 40.9985 33.3399 40.5201 33.3399ZM31.984 14.757H36.1388L41.3511 14.6059C41.8295 14.6059 42.2827 14.6562 42.7108 14.757C43.1389 14.8325 43.4914 15.0717 43.7684 15.4746C44.0454 15.8775 44.1838 16.5448 44.1838 17.4764C44.1838 18.3325 44.0454 18.962 43.7684 19.3649C43.5166 19.7678 43.1766 20.0322 42.7486 20.1581C42.3205 20.2588 41.8547 20.3092 41.3511 20.3092L36.4032 20.1959H31.833C31.1027 20.1707 30.5865 19.9567 30.2844 19.5538C30.0074 19.1257 29.8689 18.4207 29.8689 17.4386C29.8689 16.5322 30.0452 15.8649 30.3977 15.4368C30.7502 14.9836 31.279 14.757 31.984 14.757ZM63.6405 33.3022C62.7089 33.3022 62.0164 33.1385 61.5632 32.8111C61.1351 32.4838 60.9211 32.0809 60.9211 31.6025L61.2988 30.9604C61.1477 31.2122 60.8581 31.527 60.4301 31.9047C60.002 32.2572 59.448 32.5845 58.7682 32.8867C58.0883 33.1637 57.2448 33.3022 56.2376 33.3022C55.0793 33.3022 53.9714 33.0504 52.9138 32.5468C51.8814 32.0432 50.9623 31.3507 50.1566 30.4694C49.3508 29.5629 48.7087 28.5431 48.2303 27.41C47.777 26.2769 47.5504 25.0808 47.5504 23.8218C47.5504 22.588 47.777 21.4171 48.2303 20.3092C48.7087 19.1761 49.3508 18.1815 50.1566 17.3253C50.9875 16.444 51.9192 15.7516 52.9516 15.248C53.9839 14.7444 55.0793 14.4926 56.2376 14.4926C57.1692 14.4926 57.9624 14.6311 58.6171 14.908C59.2718 15.1598 59.8132 15.462 60.2412 15.8145C60.6945 16.167 61.0344 16.507 61.261 16.8343L60.9589 16.3055C60.9337 15.7012 61.1351 15.248 61.5632 14.9458C62.0164 14.6185 62.7215 14.4548 63.6783 14.4548C64.5848 14.4548 65.2269 14.5933 65.6046 14.8703C66.0075 15.1473 66.2467 15.5124 66.3222 15.9656C66.423 16.4188 66.4733 16.8973 66.4733 17.4009V30.4316C66.4733 30.91 66.423 31.3759 66.3222 31.8291C66.2467 32.2824 66.0075 32.6475 65.6046 32.9245C65.2269 33.1763 64.5722 33.3022 63.6405 33.3022ZM57.0685 27.6744C57.7232 27.6744 58.3149 27.5107 58.8437 27.1834C59.3977 26.8309 59.8257 26.365 60.1279 25.7859C60.4553 25.2067 60.6189 24.5646 60.6189 23.8596C60.6189 23.1294 60.4553 22.4873 60.1279 21.9333C59.8006 21.3542 59.3599 20.9009 58.806 20.5736C58.252 20.2211 57.6477 20.0448 56.993 20.0448C56.2628 20.0448 55.6081 20.2211 55.0289 20.5736C54.475 20.9261 54.0217 21.3919 53.6692 21.9711C53.3419 22.5502 53.1782 23.2049 53.1782 23.9351C53.1782 24.615 53.3419 25.2445 53.6692 25.8236C54.0217 26.3776 54.4876 26.8309 55.0667 27.1834C55.671 27.5107 56.3383 27.6744 57.0685 27.6744ZM74.1587 33.3399C73.2522 33.3399 72.5975 33.2014 72.1946 32.9245C71.7917 32.6475 71.5525 32.295 71.477 31.8669C71.4015 31.4388 71.3637 30.973 71.3637 30.4694V17.2498C71.3637 16.7462 71.4015 16.2929 71.477 15.8901C71.5777 15.462 71.8295 15.1221 72.2324 14.8703C72.6353 14.5933 73.3026 14.4548 74.2342 14.4548C75.1659 14.4548 75.8458 14.6436 76.2738 15.0214C76.7019 15.3739 76.9159 15.9656 76.9159 16.7966L76.4249 17.212C76.4753 17.0861 76.6263 16.8721 76.8781 16.5699C77.1299 16.2678 77.4573 15.953 77.8602 15.6257C78.2631 15.2983 78.7289 15.0214 79.2577 14.7947C79.8116 14.5429 80.4034 14.417 81.0329 14.417C81.8638 14.417 82.6066 14.5429 83.2613 14.7947C83.9412 15.0214 84.5455 15.3739 85.0743 15.8523C85.6283 16.3055 86.1067 16.8847 86.5096 17.5897C86.8621 17.0861 87.2902 16.5951 87.7938 16.1167C88.2974 15.6383 88.8891 15.2354 89.569 14.908C90.274 14.5807 91.0546 14.417 91.9107 14.417C93.3712 14.417 94.605 14.7947 95.6122 15.5501C96.6446 16.2804 97.4252 17.3379 97.954 18.7228C98.4827 20.1077 98.7471 21.7822 98.7471 23.7463V30.5072C98.7471 30.9856 98.6968 31.4514 98.5961 31.9047C98.5205 32.3327 98.2813 32.6852 97.8784 32.9622C97.4755 33.214 96.8083 33.3399 95.8766 33.3399C94.9449 33.3399 94.2777 33.2014 93.8748 32.9245C93.4971 32.6475 93.2579 32.295 93.1571 31.8669C93.0816 31.4136 93.0438 30.9478 93.0438 30.4694V23.7085C93.0438 22.9279 92.9557 22.2732 92.7794 21.7445C92.6032 21.2157 92.3262 20.8128 91.9485 20.5358C91.596 20.2336 91.1427 20.0826 90.5888 20.0826C90.0096 20.0826 89.5186 20.2211 89.1157 20.498C88.7128 20.7498 88.4107 21.1527 88.2092 21.7067C88.0078 22.2355 87.9071 22.9153 87.9071 23.7463V30.5072C87.9071 31.0108 87.8441 31.4892 87.7182 31.9424C87.5923 32.3705 87.3153 32.723 86.8873 33C86.4844 33.2518 85.8297 33.3651 84.9232 33.3399C84.0167 33.3148 83.3746 33.1637 82.9969 32.8867C82.6192 32.6097 82.3926 32.2572 82.3171 31.8291C82.2415 31.3759 82.2038 30.9226 82.2038 30.4694V23.7085C82.2038 22.9279 82.1156 22.2732 81.9394 21.7445C81.7631 21.1905 81.4987 20.775 81.1462 20.498C80.7937 20.2211 80.3278 20.0826 79.7487 20.0826C79.1192 20.0826 78.603 20.2462 78.2001 20.5736C77.7972 20.9009 77.4951 21.3416 77.2936 21.8955C77.1174 22.4243 77.0292 23.0286 77.0292 23.7085V30.5072C77.0292 31.0108 76.9789 31.4766 76.8781 31.9047C76.8026 32.3327 76.5634 32.6852 76.1605 32.9622C75.7576 33.214 75.0904 33.3399 74.1587 33.3399Z" fill="#43D0FF"/>
<path d="M117.235 49.3194C116.329 49.3194 115.674 49.1935 115.271 48.9417C114.868 48.6647 114.616 48.2996 114.516 47.8464C114.415 47.3931 114.364 46.9273 114.364 46.4489V25.7885C114.364 25.2849 114.402 24.8191 114.478 24.391C114.579 23.963 114.83 23.6105 115.233 23.3335C115.636 23.0565 116.303 22.918 117.235 22.918C118.192 22.918 118.859 23.0565 119.237 23.3335C119.64 23.6105 119.879 23.963 119.954 24.391C120.055 24.8191 120.106 25.2849 120.106 25.7885V44.3337H130.455C130.883 44.3337 131.286 44.3715 131.663 44.4471C132.041 44.5226 132.343 44.7366 132.57 45.0892C132.822 45.4417 132.947 46.0208 132.947 46.8266C132.947 47.6072 132.822 48.1863 132.57 48.564C132.318 48.9165 132.003 49.1306 131.625 49.2061C131.273 49.2817 130.883 49.3194 130.455 49.3194H117.235ZM143.33 49.2817C142.172 49.2817 141.077 49.055 140.044 48.6018C139.037 48.1485 138.156 47.519 137.401 46.7133C136.645 45.8823 136.053 44.9129 135.625 43.805C135.222 42.6719 135.021 41.438 135.021 40.1035V33.2671C135.021 32.7635 135.071 32.2976 135.172 31.8696C135.273 31.4415 135.512 31.089 135.89 30.812C136.293 30.535 136.96 30.3965 137.892 30.3965C138.823 30.3965 139.478 30.535 139.856 30.812C140.258 31.089 140.498 31.4541 140.573 31.9073C140.674 32.3354 140.724 32.8012 140.724 33.3048V40.1035C140.724 40.8337 140.85 41.4758 141.102 42.0298C141.379 42.5585 141.769 42.9614 142.273 43.2384C142.802 43.5154 143.419 43.6539 144.124 43.6539C144.854 43.6539 145.471 43.5154 145.974 43.2384C146.503 42.9362 146.906 42.5208 147.183 41.992C147.485 41.4632 147.636 40.8337 147.636 40.1035V33.2293C147.636 32.7257 147.687 32.2599 147.787 31.8318C147.888 31.4037 148.127 31.0638 148.505 30.812C148.908 30.535 149.575 30.3965 150.507 30.3965C151.438 30.3965 152.093 30.535 152.471 30.812C152.874 31.089 153.113 31.4541 153.188 31.9073C153.289 32.3354 153.34 32.7886 153.34 33.2671V46.5622C153.34 47.0406 153.289 47.4939 153.188 47.9219C153.113 48.3248 152.874 48.6521 152.471 48.904C152.068 49.1558 151.413 49.2817 150.507 49.2817C149.827 49.2817 149.298 49.2061 148.92 49.055C148.543 48.904 148.266 48.7151 148.089 48.4885C147.913 48.2619 147.8 48.0226 147.75 47.7708C147.724 47.519 147.712 47.2924 147.712 47.091L148.203 46.6755C148.127 46.7762 147.964 46.9651 147.712 47.2421C147.46 47.519 147.12 47.8212 146.692 48.1485C146.289 48.4507 145.811 48.7151 145.257 48.9417C144.703 49.1683 144.061 49.2817 143.33 49.2817ZM173.417 31.2275C173.971 31.7562 174.324 32.2347 174.475 32.6627C174.651 33.0656 174.651 33.4811 174.475 33.9092C174.298 34.312 173.946 34.7905 173.417 35.3444L161.406 48.3374C160.928 48.841 160.487 49.1809 160.084 49.3572C159.681 49.5586 159.266 49.5838 158.838 49.4327C158.435 49.2817 157.969 48.9543 157.44 48.4507C156.912 47.9219 156.559 47.4561 156.383 47.0532C156.232 46.6251 156.244 46.2097 156.42 45.8068C156.622 45.3787 156.962 44.9129 157.44 44.4093L169.451 31.3785C170.232 30.598 170.887 30.1951 171.415 30.1699C171.969 30.1195 172.637 30.4721 173.417 31.2275ZM157.44 31.2275C157.969 30.7239 158.435 30.3965 158.838 30.2454C159.266 30.0944 159.681 30.1195 160.084 30.321C160.487 30.4972 160.928 30.8498 161.406 31.3785L173.417 44.4093C173.921 44.9381 174.261 45.4039 174.437 45.8068C174.638 46.2097 174.664 46.6251 174.512 47.0532C174.361 47.4561 173.996 47.9219 173.417 48.4507C172.888 48.9543 172.422 49.2817 172.02 49.4327C171.617 49.5838 171.214 49.5586 170.811 49.3572C170.433 49.1809 169.98 48.841 169.451 48.3374L157.44 35.3444C156.937 34.8156 156.597 34.3498 156.42 33.9469C156.244 33.5189 156.232 33.0908 156.383 32.6627C156.559 32.2347 156.912 31.7562 157.44 31.2275ZM185.747 49.2817C184.588 49.2817 183.493 49.055 182.461 48.6018C181.454 48.1485 180.572 47.519 179.817 46.7133C179.061 45.8823 178.47 44.9129 178.042 43.805C177.639 42.6719 177.437 41.438 177.437 40.1035V33.2671C177.437 32.7635 177.488 32.2976 177.588 31.8696C177.689 31.4415 177.928 31.089 178.306 30.812C178.709 30.535 179.376 30.3965 180.308 30.3965C181.239 30.3965 181.894 30.535 182.272 30.812C182.675 31.089 182.914 31.4541 182.99 31.9073C183.09 32.3354 183.141 32.8012 183.141 33.3048V40.1035C183.141 40.8337 183.266 41.4758 183.518 42.0298C183.795 42.5585 184.186 42.9614 184.689 43.2384C185.218 43.5154 185.835 43.6539 186.54 43.6539C187.27 43.6539 187.887 43.5154 188.391 43.2384C188.919 42.9362 189.322 42.5208 189.599 41.992C189.901 41.4632 190.053 40.8337 190.053 40.1035V33.2293C190.053 32.7257 190.103 32.2599 190.204 31.8318C190.304 31.4037 190.544 31.0638 190.921 30.812C191.324 30.535 191.991 30.3965 192.923 30.3965C193.855 30.3965 194.509 30.535 194.887 30.812C195.29 31.089 195.529 31.4541 195.605 31.9073C195.706 32.3354 195.756 32.7886 195.756 33.2671V46.5622C195.756 47.0406 195.706 47.4939 195.605 47.9219C195.529 48.3248 195.29 48.6521 194.887 48.904C194.484 49.1558 193.83 49.2817 192.923 49.2817C192.243 49.2817 191.714 49.2061 191.337 49.055C190.959 48.904 190.682 48.7151 190.506 48.4885C190.33 48.2619 190.216 48.0226 190.166 47.7708C190.141 47.519 190.128 47.2924 190.128 47.091L190.619 46.6755C190.544 46.7762 190.38 46.9651 190.128 47.2421C189.876 47.519 189.536 47.8212 189.108 48.1485C188.705 48.4507 188.227 48.7151 187.673 48.9417C187.119 49.1683 186.477 49.2817 185.747 49.2817ZM202.349 49.3194C201.418 49.3194 200.75 49.1935 200.348 48.9417C199.97 48.6647 199.731 48.2996 199.63 47.8464C199.554 47.3931 199.517 46.9273 199.517 46.4489V33.2671C199.517 32.7635 199.567 32.2976 199.668 31.8696C199.768 31.4415 200.008 31.1016 200.385 30.8498C200.788 30.5728 201.456 30.4343 202.387 30.4343C203.269 30.4343 203.898 30.5602 204.276 30.812C204.679 31.0386 204.93 31.3156 205.031 31.6429C205.132 31.9451 205.182 32.2095 205.182 32.4361L204.729 32.6627C204.779 32.562 204.905 32.3858 205.107 32.134C205.333 31.857 205.635 31.58 206.013 31.303C206.391 31.0008 206.844 30.749 207.373 30.5476C207.927 30.3462 208.556 30.2454 209.261 30.2454C209.538 30.2454 209.841 30.2706 210.168 30.321C210.52 30.3462 210.873 30.4217 211.225 30.5476C211.603 30.6483 211.943 30.7994 212.245 31.0008C212.547 31.1771 212.787 31.4037 212.963 31.6807C213.164 31.9577 213.265 32.2976 213.265 32.7005C213.265 33.7329 213.026 34.6142 212.547 35.3444C212.069 36.0495 211.465 36.402 210.734 36.402C210.306 36.402 210.004 36.3642 209.828 36.2887C209.652 36.2131 209.501 36.1376 209.375 36.0621C209.274 35.9865 209.148 35.9236 208.997 35.8732C208.846 35.7977 208.569 35.7599 208.166 35.7599C207.788 35.7599 207.423 35.8103 207.071 35.911C206.743 36.0117 206.429 36.1754 206.126 36.402C205.849 36.6034 205.623 36.8678 205.447 37.1952C205.296 37.4973 205.22 37.8373 205.22 38.215V46.5244C205.22 47.0028 205.17 47.4687 205.069 47.9219C204.993 48.35 204.754 48.6899 204.351 48.9417C203.948 49.1935 203.281 49.3194 202.349 49.3194ZM221.238 56.949C220.205 56.4958 219.601 55.9922 219.425 55.4382C219.274 54.8842 219.412 54.1414 219.84 53.2098L229.321 32.0206C229.749 31.0386 230.215 30.4595 230.718 30.2832C231.247 30.0818 232.028 30.1825 233.06 30.5854C234.067 31.0638 234.646 31.5674 234.797 32.0962C234.974 32.625 234.86 33.33 234.457 34.2113L224.939 55.5515C224.511 56.5335 224.045 57.1253 223.542 57.3267C223.038 57.5282 222.27 57.4023 221.238 56.949ZM224.524 48.1485L215.648 34.6268C215.094 33.7958 214.867 33.1034 214.968 32.5494C215.094 31.9955 215.597 31.4289 216.479 30.8498C217.461 30.2454 218.216 30.0188 218.745 30.1699C219.299 30.2958 219.853 30.7868 220.407 31.6429L226.941 41.6521L224.524 48.1485Z" fill="#B1B1B1"/>
</g>
<defs>
<clipPath id="clip0_234_202">
<rect width="240" height="59" fill="white"/>
</clipPath>
</defs>
</svg>
