<svg width="257" height="59" viewBox="0 0 257 59" fill="none" xmlns="http://www.w3.org/2000/svg">
<g clip-path="url(#clip0_234_202)">
<path d="M120 9.87383C120 9.87383 126.58 4.99981 126.819 4.98976C127.057 4.9787 126.96 5.62133 126.878 5.79275C126.798 5.96412 125.211 8.23434 125.211 8.23434C125.211 8.23434 130.856 6.5889 131.05 6.80018C131.245 7.01253 130.665 7.6086 130.665 7.6086C130.665 7.6086 128.949 9.4592 128.652 9.80131C128.361 10.1333 127.982 10.6221 127.982 10.6221L127.394 11.4505L127.866 11.5106L128.728 11.5691L129.572 11.6027L130.965 11.5671C130.965 11.5671 131.139 11.7514 130.731 12.0323L130.208 12.3923L125.051 15.7501C125.051 15.7501 124.23 15.7779 124.229 15.6636C124.229 15.6021 123.782 13.6535 122.742 12.3493C121.844 11.2244 121.053 10.7836 120.473 10.3653C120.247 10.1307 119.812 10.0183 120.002 9.87695L120 9.87383Z" fill="#43D0FF"/>
<path d="M120.38 9.86217C120.38 9.86217 126.369 5.13485 126.584 5.21885C126.777 5.29423 126.719 5.66837 126.644 5.83509C126.569 6.00187 124.214 8.94249 124.625 9.18154C124.897 9.3403 125.134 9.09301 126.542 8.64676C128.166 8.13117 130.566 7.33221 130.601 7.52785C130.622 7.63901 128.875 9.40489 128.605 9.75097C128.347 10.0814 127.9 10.6501 127.9 10.6501C127.9 10.6501 126.648 12.0984 127.008 12.2602C127.652 12.5489 128.121 12.4537 128.495 12.439C128.767 12.4283 129.568 12.2623 129.568 12.2623L130.73 12.0304L130.637 12.0707L130.206 12.3905C130.206 12.3905 126.431 15.1133 125.048 15.7482C124.915 15.809 124.577 16.0075 124.424 15.7855C124.389 15.7354 124.096 13.7084 123.058 12.4029C122.163 11.2758 120.576 10.2269 120.79 10.4189C121.038 10.5992 120.199 9.99765 120.38 9.86217Z" fill="#43D0FF"/>
<path d="M2.64392 33V6.56081H10.1224V33H2.64392ZM24.4323 33.3399C22.6949 33.3399 20.9953 33.1385 19.3334 32.7356C17.6967 32.3327 16.3747 31.8291 15.3675 31.2248L17.5204 26.3147C18.4772 26.8938 19.5978 27.3596 20.8819 27.7122C22.1661 28.0395 23.4251 28.2032 24.659 28.2032C25.8676 28.2032 26.6986 28.0773 27.1518 27.8255C27.6302 27.5737 27.8694 27.2337 27.8694 26.8057C27.8694 26.4028 27.6428 26.1132 27.1896 25.937C26.7615 25.7355 26.1824 25.5844 25.4521 25.4837C24.7471 25.383 23.9665 25.2697 23.1104 25.1438C22.2543 25.0179 21.3855 24.8542 20.5042 24.6528C19.6481 24.4261 18.8549 24.0988 18.1247 23.6707C17.4197 23.2175 16.8531 22.6132 16.4251 21.8578C15.997 21.1024 15.783 20.1455 15.783 18.9872C15.783 17.6779 16.1607 16.5196 16.9161 15.5124C17.6967 14.48 18.8298 13.6742 20.3154 13.0951C21.801 12.4907 23.614 12.1886 25.7543 12.1886C27.1896 12.1886 28.6374 12.3397 30.0979 12.6418C31.5835 12.9188 32.8299 13.3469 33.8371 13.926L31.6842 18.7984C30.677 18.2192 29.6698 17.8289 28.6626 17.6275C27.6554 17.4009 26.6986 17.2876 25.7921 17.2876C24.5834 17.2876 23.7273 17.4261 23.2237 17.703C22.7453 17.98 22.5061 18.32 22.5061 18.7228C22.5061 19.1257 22.7201 19.4405 23.1482 19.6671C23.5762 19.8685 24.1428 20.0322 24.8478 20.1581C25.578 20.2588 26.3712 20.3721 27.2273 20.498C28.0835 20.5988 28.9396 20.7624 29.7957 20.9891C30.677 21.2157 31.4702 21.5556 32.1753 22.0089C32.9055 22.4369 33.4846 23.0286 33.9127 23.7841C34.3408 24.5143 34.5548 25.4585 34.5548 26.6168C34.5548 27.8758 34.1645 29.0089 33.3839 30.0161C32.6285 31.0234 31.4954 31.8291 29.9846 32.4334C28.4989 33.0378 26.6482 33.3399 24.4323 33.3399ZM48.6761 33.3399C46.0574 33.3399 44.0178 32.6978 42.5574 31.4136C41.0969 30.1043 40.3667 28.1402 40.3667 25.5215V7.95831H47.543V25.4459C47.543 26.1762 47.7445 26.7553 48.1474 27.1834C48.5502 27.5863 49.0664 27.7877 49.6959 27.7877C50.5521 27.7877 51.2823 27.5737 51.8866 27.1456L53.6618 32.1691C53.0575 32.5719 52.3147 32.8615 51.4334 33.0378C50.5521 33.2392 49.633 33.3399 48.6761 33.3399ZM37.3828 18.6473V13.2839H52.2265V18.6473H37.3828ZM70.8196 33V29.1852L70.3285 28.2409V21.2157C70.3285 20.0826 69.976 19.2139 69.271 18.6095C68.5911 17.98 67.4958 17.6653 65.985 17.6653C65.0029 17.6653 64.0083 17.8289 63.0011 18.1563C61.9939 18.4584 61.1378 18.8865 60.4327 19.4405L58.0154 14.5681C59.1737 13.8127 60.5586 13.2336 62.1702 12.8307C63.8069 12.4026 65.431 12.1886 67.0425 12.1886C70.3663 12.1886 72.9347 12.9566 74.7477 14.4926C76.5858 16.0034 77.5049 18.3829 77.5049 21.6311V33H70.8196ZM64.7763 33.3399C63.1396 33.3399 61.7547 33.063 60.6216 32.509C59.4885 31.955 58.6198 31.1996 58.0154 30.2428C57.4363 29.2859 57.1467 28.2158 57.1467 27.0323C57.1467 25.7733 57.4615 24.6905 58.091 23.7841C58.7457 22.8524 59.7403 22.1473 61.0748 21.6689C62.4094 21.1653 64.1342 20.9135 66.2494 20.9135H71.0839V24.6528H67.2314C66.0731 24.6528 65.2547 24.8416 64.7763 25.2193C64.3231 25.597 64.0964 26.1006 64.0964 26.7301C64.0964 27.3596 64.3357 27.8632 64.8141 28.2409C65.2925 28.6186 65.9472 28.8075 66.7781 28.8075C67.5587 28.8075 68.2638 28.6186 68.8933 28.2409C69.548 27.8381 70.0264 27.2337 70.3285 26.428L71.3106 29.0719C70.9329 30.482 70.19 31.5521 69.0821 32.2824C67.9994 32.9874 66.5641 33.3399 64.7763 33.3399ZM110.589 12.1886C112.175 12.1886 113.585 12.5159 114.819 13.1706C116.078 13.8001 117.06 14.7821 117.765 16.1167C118.496 17.4512 118.861 19.1761 118.861 21.2912V33H111.684V22.4621C111.684 21.0016 111.407 19.9441 110.853 19.2894C110.299 18.6095 109.544 18.2696 108.587 18.2696C107.907 18.2696 107.29 18.4333 106.736 18.7606C106.182 19.0879 105.754 19.5916 105.452 20.2714C105.15 20.9261 104.999 21.7822 104.999 22.8398V33H97.8226V22.4621C97.8226 21.0016 97.5457 19.9441 96.9917 19.2894C96.4629 18.6095 95.7075 18.2696 94.7255 18.2696C94.0204 18.2696 93.3909 18.4333 92.837 18.7606C92.3082 19.0879 91.8801 19.5916 91.5528 20.2714C91.2506 20.9261 91.0995 21.7822 91.0995 22.8398V33H83.9232V12.5285H90.7596V18.2318L89.3999 16.6077C90.1553 15.1473 91.1877 14.0519 92.497 13.3217C93.8064 12.5663 95.2669 12.1886 96.8784 12.1886C98.7165 12.1886 100.328 12.667 101.713 13.6239C103.123 14.5555 104.067 16.016 104.546 18.0052L102.204 17.5142C102.934 15.8523 104.03 14.5555 105.49 13.6239C106.976 12.667 108.675 12.1886 110.589 12.1886Z" fill="#737FF6"/>
<path d="M2.64392 33V6.56081H10.1224V33H2.64392ZM24.4323 33.3399C22.6949 33.3399 20.9953 33.1385 19.3334 32.7356C17.6967 32.3327 16.3747 31.8291 15.3675 31.2248L17.5204 26.3147C18.4772 26.8938 19.5978 27.3596 20.8819 27.7122C22.1661 28.0395 23.4251 28.2032 24.659 28.2032C25.8676 28.2032 26.6986 28.0773 27.1518 27.8255C27.6302 27.5737 27.8694 27.2337 27.8694 26.8057C27.8694 26.4028 27.6428 26.1132 27.1896 25.937C26.7615 25.7355 26.1824 25.5844 25.4521 25.4837C24.7471 25.383 23.9665 25.2697 23.1104 25.1438C22.2543 25.0179 21.3855 24.8542 20.5042 24.6528C19.6481 24.4261 18.8549 24.0988 18.1247 23.6707C17.4197 23.2175 16.8531 22.6132 16.4251 21.8578C15.997 21.1024 15.783 20.1455 15.783 18.9872C15.783 17.6779 16.1607 16.5196 16.9161 15.5124C17.6967 14.48 18.8298 13.6742 20.3154 13.0951C21.801 12.4907 23.614 12.1886 25.7543 12.1886C27.1896 12.1886 28.6374 12.3397 30.0979 12.6418C31.5835 12.9188 32.8299 13.3469 33.8371 13.926L31.6842 18.7984C30.677 18.2192 29.6698 17.8289 28.6626 17.6275C27.6554 17.4009 26.6986 17.2876 25.7921 17.2876C24.5834 17.2876 23.7273 17.4261 23.2237 17.703C22.7453 17.98 22.5061 18.32 22.5061 18.7228C22.5061 19.1257 22.7201 19.4405 23.1482 19.6671C23.5762 19.8685 24.1428 20.0322 24.8478 20.1581C25.578 20.2588 26.3712 20.3721 27.2273 20.498C28.0835 20.5988 28.9396 20.7624 29.7957 20.9891C30.677 21.2157 31.4702 21.5556 32.1753 22.0089C32.9055 22.4369 33.4846 23.0286 33.9127 23.7841C34.3408 24.5143 34.5548 25.4585 34.5548 26.6168C34.5548 27.8758 34.1645 29.0089 33.3839 30.0161C32.6285 31.0234 31.4954 31.8291 29.9846 32.4334C28.4989 33.0378 26.6482 33.3399 24.4323 33.3399ZM48.6761 33.3399C46.0574 33.3399 44.0178 32.6978 42.5574 31.4136C41.0969 30.1043 40.3667 28.1402 40.3667 25.5215V7.95831H47.543V25.4459C47.543 26.1762 47.7445 26.7553 48.1474 27.1834C48.5502 27.5863 49.0664 27.7877 49.6959 27.7877C50.5521 27.7877 51.2823 27.5737 51.8866 27.1456L53.6618 32.1691C53.0575 32.5719 52.3147 32.8615 51.4334 33.0378C50.5521 33.2392 49.633 33.3399 48.6761 33.3399ZM37.3828 18.6473V13.2839H52.2265V18.6473H37.3828ZM70.8196 33V29.1852L70.3285 28.2409V21.2157C70.3285 20.0826 69.976 19.2139 69.271 18.6095C68.5911 17.98 67.4958 17.6653 65.985 17.6653C65.0029 17.6653 64.0083 17.8289 63.0011 18.1563C61.9939 18.4584 61.1378 18.8865 60.4327 19.4405L58.0154 14.5681C59.1737 13.8127 60.5586 13.2336 62.1702 12.8307C63.8069 12.4026 65.431 12.1886 67.0425 12.1886C70.3663 12.1886 72.9347 12.9566 74.7477 14.4926C76.5858 16.0034 77.5049 18.3829 77.5049 21.6311V33H70.8196ZM64.7763 33.3399C63.1396 33.3399 61.7547 33.063 60.6216 32.509C59.4885 31.955 58.6198 31.1996 58.0154 30.2428C57.4363 29.2859 57.1467 28.2158 57.1467 27.0323C57.1467 25.7733 57.4615 24.6905 58.091 23.7841C58.7457 22.8524 59.7403 22.1473 61.0748 21.6689C62.4094 21.1653 64.1342 20.9135 66.2494 20.9135H71.0839V24.6528H67.2314C66.0731 24.6528 65.2547 24.8416 64.7763 25.2193C64.3231 25.597 64.0964 26.1006 64.0964 26.7301C64.0964 27.3596 64.3357 27.8632 64.8141 28.2409C65.2925 28.6186 65.9472 28.8075 66.7781 28.8075C67.5587 28.8075 68.2638 28.6186 68.8933 28.2409C69.548 27.8381 70.0264 27.2337 70.3285 26.428L71.3106 29.0719C70.9329 30.482 70.19 31.5521 69.0821 32.2824C67.9994 32.9874 66.5641 33.3399 64.7763 33.3399ZM110.589 12.1886C112.175 12.1886 113.585 12.5159 114.819 13.1706C116.078 13.8001 117.06 14.7821 117.765 16.1167C118.496 17.4512 118.861 19.1761 118.861 21.2912V33H111.684V22.4621C111.684 21.0016 111.407 19.9441 110.853 19.2894C110.299 18.6095 109.544 18.2696 108.587 18.2696C107.907 18.2696 107.29 18.4333 106.736 18.7606C106.182 19.0879 105.754 19.5916 105.452 20.2714C105.15 20.9261 104.999 21.7822 104.999 22.8398V33H97.8226V22.4621C97.8226 21.0016 97.5457 19.9441 96.9917 19.2894C96.4629 18.6095 95.7075 18.2696 94.7255 18.2696C94.0204 18.2696 93.3909 18.4333 92.837 18.7606C92.3082 19.0879 91.8801 19.5916 91.5528 20.2714C91.2506 20.9261 91.0995 21.7822 91.0995 22.8398V33H83.9232V12.5285H90.7596V18.2318L89.3999 16.6077C90.1553 15.1473 91.1877 14.0519 92.497 13.3217C93.8064 12.5663 95.2669 12.1886 96.8784 12.1886C98.7165 12.1886 100.328 12.667 101.713 13.6239C103.123 14.5555 104.067 16.016 104.546 18.0052L102.204 17.5142C102.934 15.8523 104.03 14.5555 105.49 13.6239C106.976 12.667 108.675 12.1886 110.589 12.1886Z" fill="#43D0FF"/>
<path d="M128.644 53V26.5608H142.166C145.641 26.5608 148.234 27.2029 149.946 28.4871C151.659 29.7461 152.515 31.408 152.515 33.4728C152.515 34.8325 152.15 36.0286 151.419 37.0609C150.714 38.0682 149.707 38.8739 148.398 39.4782C147.114 40.0574 145.578 40.347 143.79 40.347L144.545 38.534C146.409 38.534 148.033 38.8236 149.418 39.4027C150.802 39.9567 151.873 40.775 152.628 41.8578C153.409 42.9153 153.799 44.2121 153.799 45.7481C153.799 48.0395 152.867 49.8273 151.004 51.1115C149.166 52.3705 146.471 53 142.921 53H128.644ZM136.047 47.5989H142.317C143.601 47.5989 144.57 47.3848 145.225 46.9568C145.905 46.5035 146.245 45.8236 146.245 44.9172C146.245 44.0107 145.905 43.3434 145.225 42.9153C144.57 42.4621 143.601 42.2355 142.317 42.2355H135.518V37.0609H141.184C142.443 37.0609 143.387 36.8469 144.016 36.4189C144.646 35.9908 144.961 35.3487 144.961 34.4926C144.961 33.6364 144.646 33.0069 144.016 32.6041C143.387 32.176 142.443 31.962 141.184 31.962H136.047V47.5989ZM159.221 53V32.5285H166.057V38.4962L165.038 36.7966C165.642 35.2606 166.624 34.1149 167.984 33.3595C169.343 32.5789 170.993 32.1886 172.932 32.1886V38.6473C172.604 38.5969 172.315 38.5718 172.063 38.5718C171.836 38.5466 171.584 38.534 171.308 38.534C169.847 38.534 168.664 38.9369 167.757 39.7426C166.851 40.5232 166.397 41.8074 166.397 43.5952V53H159.221ZM189.066 53V49.1852L188.575 48.2409V41.2157C188.575 40.0826 188.223 39.2139 187.518 38.6095C186.838 37.98 185.743 37.6653 184.232 37.6653C183.25 37.6653 182.255 37.8289 181.248 38.1563C180.241 38.4584 179.385 38.8865 178.679 39.4405L176.262 34.5681C177.42 33.8127 178.805 33.2336 180.417 32.8307C182.054 32.4026 183.678 32.1886 185.289 32.1886C188.613 32.1886 191.181 32.9566 192.994 34.4926C194.833 36.0034 195.752 38.3829 195.752 41.6311V53H189.066ZM183.023 53.3399C181.386 53.3399 180.001 53.063 178.868 52.509C177.735 51.955 176.867 51.1996 176.262 50.2428C175.683 49.2859 175.393 48.2158 175.393 47.0323C175.393 45.7733 175.708 44.6905 176.338 43.7841C176.992 42.8524 177.987 42.1473 179.322 41.6689C180.656 41.1653 182.381 40.9135 184.496 40.9135H189.331V44.6528H185.478C184.32 44.6528 183.502 44.8416 183.023 45.2193C182.57 45.597 182.343 46.1006 182.343 46.7301C182.343 47.3596 182.582 47.8632 183.061 48.2409C183.539 48.6186 184.194 48.8075 185.025 48.8075C185.805 48.8075 186.511 48.6186 187.14 48.2409C187.795 47.8381 188.273 47.2337 188.575 46.428L189.557 49.0719C189.18 50.482 188.437 51.5521 187.329 52.2824C186.246 52.9874 184.811 53.3399 183.023 53.3399ZM215.503 32.1886C217.089 32.1886 218.524 32.5159 219.809 33.1706C221.093 33.8001 222.1 34.7821 222.83 36.1167C223.586 37.4512 223.963 39.1761 223.963 41.2912V53H216.787V42.4621C216.787 41.0016 216.485 39.9441 215.881 39.2894C215.301 38.6095 214.483 38.2696 213.425 38.2696C212.67 38.2696 211.978 38.4459 211.348 38.7984C210.719 39.1257 210.228 39.6419 209.875 40.347C209.523 41.052 209.346 41.9711 209.346 43.1042V53H202.17V32.5285H209.006V38.3451L207.684 36.6455C208.465 35.1598 209.535 34.0519 210.895 33.3217C212.255 32.5663 213.791 32.1886 215.503 32.1886ZM239.529 53.3399C237.666 53.3399 235.966 52.9119 234.43 52.0557C232.92 51.1744 231.711 49.9532 230.805 48.392C229.898 46.8057 229.445 44.9172 229.445 42.7265C229.445 40.561 229.898 38.6977 230.805 37.1365C231.711 35.5501 232.92 34.3289 234.43 33.4728C235.966 32.6166 237.666 32.1886 239.529 32.1886C241.292 32.1886 242.778 32.5663 243.986 33.3217C245.22 34.0771 246.152 35.2354 246.781 36.7966C247.411 38.3577 247.726 40.3344 247.726 42.7265C247.726 45.169 247.423 47.1708 246.819 48.732C246.215 50.2931 245.308 51.4514 244.1 52.2068C242.891 52.9622 241.368 53.3399 239.529 53.3399ZM241.04 47.6366C241.846 47.6366 242.564 47.4478 243.193 47.0701C243.848 46.6924 244.364 46.1384 244.742 45.4082C245.119 44.6528 245.308 43.7589 245.308 42.7265C245.308 41.6941 245.119 40.8254 244.742 40.1203C244.364 39.3901 243.848 38.8361 243.193 38.4584C242.564 38.0807 241.846 37.8919 241.04 37.8919C240.209 37.8919 239.467 38.0807 238.812 38.4584C238.182 38.8361 237.679 39.3901 237.301 40.1203C236.923 40.8254 236.734 41.6941 236.734 42.7265C236.734 43.7589 236.923 44.6528 237.301 45.4082C237.679 46.1384 238.182 46.6924 238.812 47.0701C239.467 47.4478 240.209 47.6366 241.04 47.6366ZM245.535 53V49.4874L245.573 42.7265L245.195 35.9656V24.9745H252.371V53H245.535Z" fill="#737FF6"/>
<path d="M128.644 53V26.5608H142.166C145.641 26.5608 148.234 27.2029 149.946 28.4871C151.659 29.7461 152.515 31.408 152.515 33.4728C152.515 34.8325 152.15 36.0286 151.419 37.0609C150.714 38.0682 149.707 38.8739 148.398 39.4782C147.114 40.0574 145.578 40.347 143.79 40.347L144.545 38.534C146.409 38.534 148.033 38.8236 149.418 39.4027C150.802 39.9567 151.873 40.775 152.628 41.8578C153.409 42.9153 153.799 44.2121 153.799 45.7481C153.799 48.0395 152.867 49.8273 151.004 51.1115C149.166 52.3705 146.471 53 142.921 53H128.644ZM136.047 47.5989H142.317C143.601 47.5989 144.57 47.3848 145.225 46.9568C145.905 46.5035 146.245 45.8236 146.245 44.9172C146.245 44.0107 145.905 43.3434 145.225 42.9153C144.57 42.4621 143.601 42.2355 142.317 42.2355H135.518V37.0609H141.184C142.443 37.0609 143.387 36.8469 144.016 36.4189C144.646 35.9908 144.961 35.3487 144.961 34.4926C144.961 33.6364 144.646 33.0069 144.016 32.6041C143.387 32.176 142.443 31.962 141.184 31.962H136.047V47.5989ZM159.221 53V32.5285H166.057V38.4962L165.038 36.7966C165.642 35.2606 166.624 34.1149 167.984 33.3595C169.343 32.5789 170.993 32.1886 172.932 32.1886V38.6473C172.604 38.5969 172.315 38.5718 172.063 38.5718C171.836 38.5466 171.584 38.534 171.308 38.534C169.847 38.534 168.664 38.9369 167.757 39.7426C166.851 40.5232 166.397 41.8074 166.397 43.5952V53H159.221ZM189.066 53V49.1852L188.575 48.2409V41.2157C188.575 40.0826 188.223 39.2139 187.518 38.6095C186.838 37.98 185.743 37.6653 184.232 37.6653C183.25 37.6653 182.255 37.8289 181.248 38.1563C180.241 38.4584 179.385 38.8865 178.679 39.4405L176.262 34.5681C177.42 33.8127 178.805 33.2336 180.417 32.8307C182.054 32.4026 183.678 32.1886 185.289 32.1886C188.613 32.1886 191.181 32.9566 192.994 34.4926C194.833 36.0034 195.752 38.3829 195.752 41.6311V53H189.066ZM183.023 53.3399C181.386 53.3399 180.001 53.063 178.868 52.509C177.735 51.955 176.867 51.1996 176.262 50.2428C175.683 49.2859 175.393 48.2158 175.393 47.0323C175.393 45.7733 175.708 44.6905 176.338 43.7841C176.992 42.8524 177.987 42.1473 179.322 41.6689C180.656 41.1653 182.381 40.9135 184.496 40.9135H189.331V44.6528H185.478C184.32 44.6528 183.502 44.8416 183.023 45.2193C182.57 45.597 182.343 46.1006 182.343 46.7301C182.343 47.3596 182.582 47.8632 183.061 48.2409C183.539 48.6186 184.194 48.8075 185.025 48.8075C185.805 48.8075 186.511 48.6186 187.14 48.2409C187.795 47.8381 188.273 47.2337 188.575 46.428L189.557 49.0719C189.18 50.482 188.437 51.5521 187.329 52.2824C186.246 52.9874 184.811 53.3399 183.023 53.3399ZM215.503 32.1886C217.089 32.1886 218.524 32.5159 219.809 33.1706C221.093 33.8001 222.1 34.7821 222.83 36.1167C223.586 37.4512 223.963 39.1761 223.963 41.2912V53H216.787V42.4621C216.787 41.0016 216.485 39.9441 215.881 39.2894C215.301 38.6095 214.483 38.2696 213.425 38.2696C212.67 38.2696 211.978 38.4459 211.348 38.7984C210.719 39.1257 210.228 39.6419 209.875 40.347C209.523 41.052 209.346 41.9711 209.346 43.1042V53H202.17V32.5285H209.006V38.3451L207.684 36.6455C208.465 35.1598 209.535 34.0519 210.895 33.3217C212.255 32.5663 213.791 32.1886 215.503 32.1886ZM239.529 53.3399C237.666 53.3399 235.966 52.9119 234.43 52.0557C232.92 51.1744 231.711 49.9532 230.805 48.392C229.898 46.8057 229.445 44.9172 229.445 42.7265C229.445 40.561 229.898 38.6977 230.805 37.1365C231.711 35.5501 232.92 34.3289 234.43 33.4728C235.966 32.6166 237.666 32.1886 239.529 32.1886C241.292 32.1886 242.778 32.5663 243.986 33.3217C245.22 34.0771 246.152 35.2354 246.781 36.7966C247.411 38.3577 247.726 40.3344 247.726 42.7265C247.726 45.169 247.423 47.1708 246.819 48.732C246.215 50.2931 245.308 51.4514 244.1 52.2068C242.891 52.9622 241.368 53.3399 239.529 53.3399ZM241.04 47.6366C241.846 47.6366 242.564 47.4478 243.193 47.0701C243.848 46.6924 244.364 46.1384 244.742 45.4082C245.119 44.6528 245.308 43.7589 245.308 42.7265C245.308 41.6941 245.119 40.8254 244.742 40.1203C244.364 39.3901 243.848 38.8361 243.193 38.4584C242.564 38.0807 241.846 37.8919 241.04 37.8919C240.209 37.8919 239.467 38.0807 238.812 38.4584C238.182 38.8361 237.679 39.3901 237.301 40.1203C236.923 40.8254 236.734 41.6941 236.734 42.7265C236.734 43.7589 236.923 44.6528 237.301 45.4082C237.679 46.1384 238.182 46.6924 238.812 47.0701C239.467 47.4478 240.209 47.6366 241.04 47.6366ZM245.535 53V49.4874L245.573 42.7265L245.195 35.9656V24.9745H252.371V53H245.535Z" fill="white"/>
</g>
<defs>
<clipPath id="clip0_234_202">
<rect width="257" height="59" fill="white"/>
</clipPath>
</defs>
</svg>
