<svg width="132" height="39" viewBox="0 0 132 39" fill="none" xmlns="http://www.w3.org/2000/svg">
<g clip-path="url(#clip0_330_195)">
<path d="M119.253 9.87383C119.253 9.87383 125.793 4.99981 126.03 4.98976C126.267 4.9787 126.17 5.62133 126.089 5.79275C126.009 5.96412 124.432 8.23434 124.432 8.23434C124.432 8.23434 130.042 6.5889 130.235 6.80018C130.428 7.01253 129.852 7.6086 129.852 7.6086C129.852 7.6086 128.147 9.4592 127.851 9.80131C127.563 10.1333 127.186 10.6221 127.186 10.6221L126.602 11.4505L127.07 11.5106L127.927 11.5691L128.765 11.6027L130.151 11.5671C130.151 11.5671 130.323 11.7514 129.918 12.0323L129.398 12.3923L124.273 15.7501C124.273 15.7501 123.457 15.7779 123.456 15.6636C123.456 15.6021 123.012 13.6535 121.978 12.3493C121.086 11.2244 120.3 10.7836 119.723 10.3653C119.499 10.1307 119.067 10.0183 119.255 9.87695L119.253 9.87383Z" fill="#43D0FF"/>
<path d="M119.631 9.86217C119.631 9.86217 125.583 5.13485 125.796 5.21885C125.988 5.29423 125.93 5.66837 125.856 5.83509C125.781 6.00187 123.441 8.94249 123.85 9.18154C124.12 9.3403 124.355 9.09301 125.754 8.64676C127.369 8.13117 129.753 7.33221 129.789 7.52785C129.809 7.63901 128.073 9.40489 127.805 9.75097C127.549 10.0814 127.105 10.6501 127.105 10.6501C127.105 10.6501 125.86 12.0984 126.218 12.2602C126.858 12.5489 127.324 12.4537 127.695 12.439C127.966 12.4283 128.762 12.2623 128.762 12.2623L129.916 12.0304L129.824 12.0707L129.396 12.3905C129.396 12.3905 125.645 15.1133 124.27 15.7482C124.138 15.809 123.802 16.0075 123.65 15.7855C123.616 15.7354 123.324 13.7084 122.293 12.4029C121.403 11.2758 119.826 10.2269 120.038 10.4189C120.285 10.5992 119.451 9.99765 119.631 9.86217Z" fill="#43D0FF"/>
<path d="M2.64392 33V6.56081H10.1224V33H2.64392ZM24.4323 33.3399C22.6949 33.3399 20.9953 33.1385 19.3334 32.7356C17.6967 32.3327 16.3747 31.8291 15.3675 31.2248L17.5204 26.3147C18.4772 26.8938 19.5978 27.3596 20.8819 27.7122C22.1661 28.0395 23.4251 28.2032 24.659 28.2032C25.8676 28.2032 26.6986 28.0773 27.1518 27.8255C27.6302 27.5737 27.8694 27.2337 27.8694 26.8057C27.8694 26.4028 27.6428 26.1132 27.1896 25.937C26.7615 25.7355 26.1824 25.5844 25.4521 25.4837C24.7471 25.383 23.9665 25.2697 23.1104 25.1438C22.2543 25.0179 21.3855 24.8542 20.5042 24.6528C19.6481 24.4261 18.8549 24.0988 18.1247 23.6707C17.4197 23.2175 16.8531 22.6132 16.4251 21.8578C15.997 21.1024 15.783 20.1455 15.783 18.9872C15.783 17.6779 16.1607 16.5196 16.9161 15.5124C17.6967 14.48 18.8298 13.6742 20.3154 13.0951C21.801 12.4907 23.614 12.1886 25.7543 12.1886C27.1896 12.1886 28.6374 12.3397 30.0979 12.6418C31.5835 12.9188 32.8299 13.3469 33.8371 13.926L31.6842 18.7984C30.677 18.2192 29.6698 17.8289 28.6626 17.6275C27.6554 17.4009 26.6986 17.2876 25.7921 17.2876C24.5834 17.2876 23.7273 17.4261 23.2237 17.703C22.7453 17.98 22.5061 18.32 22.5061 18.7228C22.5061 19.1257 22.7201 19.4405 23.1482 19.6671C23.5762 19.8685 24.1428 20.0322 24.8478 20.1581C25.578 20.2588 26.3712 20.3721 27.2273 20.498C28.0835 20.5988 28.9396 20.7624 29.7957 20.9891C30.677 21.2157 31.4702 21.5556 32.1753 22.0089C32.9055 22.4369 33.4846 23.0286 33.9127 23.7841C34.3408 24.5143 34.5548 25.4585 34.5548 26.6168C34.5548 27.8758 34.1645 29.0089 33.3839 30.0161C32.6285 31.0234 31.4954 31.8291 29.9846 32.4334C28.4989 33.0378 26.6482 33.3399 24.4323 33.3399ZM48.6761 33.3399C46.0574 33.3399 44.0178 32.6978 42.5574 31.4136C41.0969 30.1043 40.3667 28.1402 40.3667 25.5215V7.95831H47.543V25.4459C47.543 26.1762 47.7445 26.7553 48.1474 27.1834C48.5502 27.5863 49.0664 27.7877 49.6959 27.7877C50.5521 27.7877 51.2823 27.5737 51.8866 27.1456L53.6618 32.1691C53.0575 32.5719 52.3147 32.8615 51.4334 33.0378C50.5521 33.2392 49.633 33.3399 48.6761 33.3399ZM37.3828 18.6473V13.2839H52.2265V18.6473H37.3828ZM70.8196 33V29.1852L70.3285 28.2409V21.2157C70.3285 20.0826 69.976 19.2139 69.271 18.6095C68.5911 17.98 67.4958 17.6653 65.985 17.6653C65.0029 17.6653 64.0083 17.8289 63.0011 18.1563C61.9939 18.4584 61.1378 18.8865 60.4327 19.4405L58.0154 14.5681C59.1737 13.8127 60.5586 13.2336 62.1702 12.8307C63.8069 12.4026 65.431 12.1886 67.0425 12.1886C70.3663 12.1886 72.9347 12.9566 74.7477 14.4926C76.5858 16.0034 77.5049 18.3829 77.5049 21.6311V33H70.8196ZM64.7763 33.3399C63.1396 33.3399 61.7547 33.063 60.6216 32.509C59.4885 31.955 58.6198 31.1996 58.0154 30.2428C57.4363 29.2859 57.1467 28.2158 57.1467 27.0323C57.1467 25.7733 57.4615 24.6905 58.091 23.7841C58.7457 22.8524 59.7403 22.1473 61.0748 21.6689C62.4094 21.1653 64.1342 20.9135 66.2494 20.9135H71.0839V24.6528H67.2314C66.0731 24.6528 65.2547 24.8416 64.7763 25.2193C64.3231 25.597 64.0964 26.1006 64.0964 26.7301C64.0964 27.3596 64.3357 27.8632 64.8141 28.2409C65.2925 28.6186 65.9472 28.8075 66.7781 28.8075C67.5587 28.8075 68.2638 28.6186 68.8933 28.2409C69.548 27.8381 70.0264 27.2337 70.3285 26.428L71.3106 29.0719C70.9329 30.482 70.19 31.5521 69.0821 32.2824C67.9994 32.9874 66.5641 33.3399 64.7763 33.3399ZM110.589 12.1886C112.175 12.1886 113.585 12.5159 114.819 13.1706C116.078 13.8001 117.06 14.7821 117.765 16.1167C118.496 17.4512 118.861 19.1761 118.861 21.2912V33H111.684V22.4621C111.684 21.0016 111.407 19.9441 110.853 19.2894C110.299 18.6095 109.544 18.2696 108.587 18.2696C107.907 18.2696 107.29 18.4333 106.736 18.7606C106.182 19.0879 105.754 19.5916 105.452 20.2714C105.15 20.9261 104.999 21.7822 104.999 22.8398V33H97.8226V22.4621C97.8226 21.0016 97.5457 19.9441 96.9917 19.2894C96.4629 18.6095 95.7075 18.2696 94.7255 18.2696C94.0204 18.2696 93.3909 18.4333 92.837 18.7606C92.3082 19.0879 91.8801 19.5916 91.5528 20.2714C91.2506 20.9261 91.0995 21.7822 91.0995 22.8398V33H83.9232V12.5285H90.7596V18.2318L89.3999 16.6077C90.1553 15.1473 91.1877 14.0519 92.497 13.3217C93.8064 12.5663 95.2669 12.1886 96.8784 12.1886C98.7165 12.1886 100.328 12.667 101.713 13.6239C103.123 14.5555 104.067 16.016 104.546 18.0052L102.204 17.5142C102.934 15.8523 104.03 14.5555 105.49 13.6239C106.976 12.667 108.675 12.1886 110.589 12.1886Z" fill="#737FF6"/>
<path d="M2.64392 33V6.56081H10.1224V33H2.64392ZM24.4323 33.3399C22.6949 33.3399 20.9953 33.1385 19.3334 32.7356C17.6967 32.3327 16.3747 31.8291 15.3675 31.2248L17.5204 26.3147C18.4772 26.8938 19.5978 27.3596 20.8819 27.7122C22.1661 28.0395 23.4251 28.2032 24.659 28.2032C25.8676 28.2032 26.6986 28.0773 27.1518 27.8255C27.6302 27.5737 27.8694 27.2337 27.8694 26.8057C27.8694 26.4028 27.6428 26.1132 27.1896 25.937C26.7615 25.7355 26.1824 25.5844 25.4521 25.4837C24.7471 25.383 23.9665 25.2697 23.1104 25.1438C22.2543 25.0179 21.3855 24.8542 20.5042 24.6528C19.6481 24.4261 18.8549 24.0988 18.1247 23.6707C17.4197 23.2175 16.8531 22.6132 16.4251 21.8578C15.997 21.1024 15.783 20.1455 15.783 18.9872C15.783 17.6779 16.1607 16.5196 16.9161 15.5124C17.6967 14.48 18.8298 13.6742 20.3154 13.0951C21.801 12.4907 23.614 12.1886 25.7543 12.1886C27.1896 12.1886 28.6374 12.3397 30.0979 12.6418C31.5835 12.9188 32.8299 13.3469 33.8371 13.926L31.6842 18.7984C30.677 18.2192 29.6698 17.8289 28.6626 17.6275C27.6554 17.4009 26.6986 17.2876 25.7921 17.2876C24.5834 17.2876 23.7273 17.4261 23.2237 17.703C22.7453 17.98 22.5061 18.32 22.5061 18.7228C22.5061 19.1257 22.7201 19.4405 23.1482 19.6671C23.5762 19.8685 24.1428 20.0322 24.8478 20.1581C25.578 20.2588 26.3712 20.3721 27.2273 20.498C28.0835 20.5988 28.9396 20.7624 29.7957 20.9891C30.677 21.2157 31.4702 21.5556 32.1753 22.0089C32.9055 22.4369 33.4846 23.0286 33.9127 23.7841C34.3408 24.5143 34.5548 25.4585 34.5548 26.6168C34.5548 27.8758 34.1645 29.0089 33.3839 30.0161C32.6285 31.0234 31.4954 31.8291 29.9846 32.4334C28.4989 33.0378 26.6482 33.3399 24.4323 33.3399ZM48.6761 33.3399C46.0574 33.3399 44.0178 32.6978 42.5574 31.4136C41.0969 30.1043 40.3667 28.1402 40.3667 25.5215V7.95831H47.543V25.4459C47.543 26.1762 47.7445 26.7553 48.1474 27.1834C48.5502 27.5863 49.0664 27.7877 49.6959 27.7877C50.5521 27.7877 51.2823 27.5737 51.8866 27.1456L53.6618 32.1691C53.0575 32.5719 52.3147 32.8615 51.4334 33.0378C50.5521 33.2392 49.633 33.3399 48.6761 33.3399ZM37.3828 18.6473V13.2839H52.2265V18.6473H37.3828ZM70.8196 33V29.1852L70.3285 28.2409V21.2157C70.3285 20.0826 69.976 19.2139 69.271 18.6095C68.5911 17.98 67.4958 17.6653 65.985 17.6653C65.0029 17.6653 64.0083 17.8289 63.0011 18.1563C61.9939 18.4584 61.1378 18.8865 60.4327 19.4405L58.0154 14.5681C59.1737 13.8127 60.5586 13.2336 62.1702 12.8307C63.8069 12.4026 65.431 12.1886 67.0425 12.1886C70.3663 12.1886 72.9347 12.9566 74.7477 14.4926C76.5858 16.0034 77.5049 18.3829 77.5049 21.6311V33H70.8196ZM64.7763 33.3399C63.1396 33.3399 61.7547 33.063 60.6216 32.509C59.4885 31.955 58.6198 31.1996 58.0154 30.2428C57.4363 29.2859 57.1467 28.2158 57.1467 27.0323C57.1467 25.7733 57.4615 24.6905 58.091 23.7841C58.7457 22.8524 59.7403 22.1473 61.0748 21.6689C62.4094 21.1653 64.1342 20.9135 66.2494 20.9135H71.0839V24.6528H67.2314C66.0731 24.6528 65.2547 24.8416 64.7763 25.2193C64.3231 25.597 64.0964 26.1006 64.0964 26.7301C64.0964 27.3596 64.3357 27.8632 64.8141 28.2409C65.2925 28.6186 65.9472 28.8075 66.7781 28.8075C67.5587 28.8075 68.2638 28.6186 68.8933 28.2409C69.548 27.8381 70.0264 27.2337 70.3285 26.428L71.3106 29.0719C70.9329 30.482 70.19 31.5521 69.0821 32.2824C67.9994 32.9874 66.5641 33.3399 64.7763 33.3399ZM110.589 12.1886C112.175 12.1886 113.585 12.5159 114.819 13.1706C116.078 13.8001 117.06 14.7821 117.765 16.1167C118.496 17.4512 118.861 19.1761 118.861 21.2912V33H111.684V22.4621C111.684 21.0016 111.407 19.9441 110.853 19.2894C110.299 18.6095 109.544 18.2696 108.587 18.2696C107.907 18.2696 107.29 18.4333 106.736 18.7606C106.182 19.0879 105.754 19.5916 105.452 20.2714C105.15 20.9261 104.999 21.7822 104.999 22.8398V33H97.8226V22.4621C97.8226 21.0016 97.5457 19.9441 96.9917 19.2894C96.4629 18.6095 95.7075 18.2696 94.7255 18.2696C94.0204 18.2696 93.3909 18.4333 92.837 18.7606C92.3082 19.0879 91.8801 19.5916 91.5528 20.2714C91.2506 20.9261 91.0995 21.7822 91.0995 22.8398V33H83.9232V12.5285H90.7596V18.2318L89.3999 16.6077C90.1553 15.1473 91.1877 14.0519 92.497 13.3217C93.8064 12.5663 95.2669 12.1886 96.8784 12.1886C98.7165 12.1886 100.328 12.667 101.713 13.6239C103.123 14.5555 104.067 16.016 104.546 18.0052L102.204 17.5142C102.934 15.8523 104.03 14.5555 105.49 13.6239C106.976 12.667 108.675 12.1886 110.589 12.1886Z" fill="#43D0FF"/>
</g>
<defs>
<clipPath id="clip0_330_195">
<rect width="131.179" height="39" fill="white"/>
</clipPath>
</defs>
</svg>
