<svg width="1388" height="323" viewBox="0 0 1388 323" fill="none" xmlns="http://www.w3.org/2000/svg">
<path d="M560.164 60.7583C560.164 60.7583 596.704 33.5248 598.032 33.4687C599.353 33.4069 598.814 36.9975 598.359 37.9553C597.911 38.9128 589.101 51.5977 589.101 51.5977C589.101 51.5977 620.446 42.4038 621.525 43.5843C622.604 44.7709 619.383 48.1014 619.383 48.1014C619.383 48.1014 609.858 58.4416 608.207 60.3531C606.595 62.2083 604.487 64.9391 604.487 64.9391L601.223 69.568L603.842 69.9038L608.631 70.2306L613.314 70.4181L621.053 70.2197C621.053 70.2197 622.019 71.2492 619.753 72.8185L616.851 74.8305L588.212 93.5917C588.212 93.5917 583.653 93.7475 583.647 93.1087C583.646 92.7651 581.168 81.8774 575.39 74.5899C570.405 68.3046 566.014 65.8415 562.792 63.5043C561.539 62.1938 559.124 61.5653 560.177 60.7757L560.164 60.7583Z" fill="#43D0FF"/>
<path d="M562.274 60.6932C562.274 60.6932 595.531 34.2793 596.723 34.7487C597.795 35.1699 597.472 37.2604 597.059 38.1919C596.64 39.1238 583.566 55.5545 585.849 56.8902C587.359 57.7772 588.672 56.3955 596.49 53.9021C605.512 51.0212 618.834 46.557 619.031 47.6502C619.146 48.2713 609.447 58.1381 607.95 60.0719C606.516 61.918 604.034 65.096 604.034 65.096C604.034 65.096 597.08 73.1881 599.081 74.0921C602.655 75.7052 605.261 75.1734 607.335 75.091C608.847 75.0315 613.295 74.1038 613.295 74.1038L619.745 72.8079L619.231 73.0333L616.836 74.8202C616.836 74.8202 595.876 90.0341 588.198 93.5814C587.456 93.9209 585.582 95.03 584.733 93.7895C584.539 93.51 582.909 82.1842 577.149 74.8897C572.175 68.5918 563.364 62.731 564.55 63.8037C565.932 64.8111 561.268 61.4502 562.274 60.6932Z" fill="#43D0FF"/>
<path d="M24.2697 186.899C19.2047 186.899 15.5467 186.196 13.2956 184.789C11.0445 183.241 9.63754 181.201 9.07476 178.669C8.65268 176.136 8.44164 173.533 8.44164 170.86V55.4209C8.44164 52.607 8.65268 50.0041 9.07476 47.6123C9.63754 45.2205 11.0445 43.2508 13.2956 41.7032C15.5467 40.1556 19.2751 39.3817 24.4807 39.3817C29.8271 39.3817 33.5555 40.1556 35.6659 41.7032C37.917 43.2508 39.2536 45.2205 39.6757 47.6123C40.2385 50.0041 40.5199 52.6773 40.5199 55.6319V171.071C40.5199 173.744 40.2385 176.347 39.6757 178.88C39.1129 181.272 37.706 183.241 35.4549 184.789C33.3445 186.196 29.6161 186.899 24.2697 186.899ZM106.243 188.588C102.444 188.588 98.2934 188.166 93.7912 187.321C89.4297 186.477 85.1385 185.281 80.9177 183.734C76.6969 182.045 73.1795 180.146 70.3657 178.036C67.5518 175.785 65.9338 173.252 65.5117 170.438C65.2303 169.031 65.2303 167.554 65.5117 166.006C65.9338 164.318 66.6373 162.63 67.6221 160.941C68.607 159.112 69.8029 157.213 71.2098 155.243C72.3354 153.696 73.6016 152.711 75.0086 152.289C76.4155 151.867 78.0335 151.937 79.8625 152.5C82.1136 152.922 84.3647 153.696 86.6158 154.821C89.0076 155.806 91.3291 156.932 93.5802 158.198C95.972 159.323 98.4341 160.379 100.967 161.363C103.499 162.208 106.102 162.63 108.775 162.63C112.715 162.63 115.739 162.067 117.85 160.941C120.101 159.675 121.227 157.987 121.227 155.876C121.227 154.329 120.734 153.062 119.749 152.078C118.905 151.093 117.639 150.249 115.951 149.545C114.403 148.701 112.574 147.997 110.463 147.435C108.353 146.872 106.032 146.309 103.499 145.746C101.107 145.043 98.6452 144.339 96.1127 143.636C92.5953 142.651 89.2187 141.385 85.9827 139.837C82.7467 138.29 79.7922 136.32 77.119 133.928C74.4458 131.396 72.3354 128.371 70.7877 124.853C69.2401 121.195 68.4663 116.763 68.4663 111.558C68.4663 104.664 70.0843 98.8953 73.3202 94.2524C76.5562 89.6095 81.2694 86.0921 87.46 83.7003C93.6505 81.1679 101.178 79.9016 110.041 79.9016C112.574 79.9016 115.106 80.0423 117.639 80.3237C120.171 80.6051 122.633 81.0975 125.025 81.801C127.558 82.5044 130.02 83.3486 132.412 84.3335C134.804 85.3183 137.195 86.5142 139.587 87.9212C143.808 89.8909 145.989 92.5641 146.129 95.9407C146.27 99.3174 145.074 102.764 142.542 106.282C140.994 108.674 139.376 110.432 137.688 111.558C135.999 112.543 134.241 112.824 132.412 112.402C130.161 111.839 127.698 110.925 125.025 109.658C122.493 108.392 119.749 107.196 116.795 106.071C113.981 104.945 111.167 104.382 108.353 104.382C105.961 104.382 103.921 104.734 102.233 105.438C100.545 106 99.2783 106.845 98.4341 107.97C97.5899 108.955 97.1679 110.151 97.1679 111.558C97.1679 113.387 97.6603 114.864 98.6452 115.99C99.7707 116.974 101.248 117.819 103.077 118.522C104.906 119.226 107.016 119.859 109.408 120.421C111.8 120.984 114.403 121.547 117.217 122.11C121.015 122.813 124.885 123.798 128.824 125.064C132.904 126.19 136.562 127.878 139.798 130.129C143.175 132.38 145.848 135.405 147.818 139.204C149.928 143.003 150.983 147.997 150.983 154.188C150.983 165.303 147.114 173.815 139.376 179.724C131.638 185.633 120.593 188.588 106.243 188.588ZM226.406 186.899C219.23 186.899 213.04 186.126 207.834 184.578C202.769 183.03 198.548 180.638 195.172 177.403C191.795 174.167 189.262 170.086 187.574 165.162C186.027 160.097 185.253 154.118 185.253 147.224V61.541C185.253 58.7272 185.464 56.1947 185.886 53.9436C186.449 51.6925 187.856 49.8634 190.107 48.4565C192.358 46.9089 196.016 46.1351 201.081 46.1351C206.146 46.1351 209.804 46.9089 212.055 48.4565C214.306 50.0041 215.643 51.9739 216.065 54.3657C216.627 56.7574 216.909 59.3603 216.909 62.1742V145.957C216.909 148.209 217.05 150.108 217.331 151.656C217.753 153.062 218.316 154.118 219.019 154.821C219.723 155.525 220.708 156.017 221.974 156.298C223.24 156.58 224.788 156.721 226.617 156.721C229.712 156.721 232.456 157.002 234.847 157.565C237.239 158.127 239.068 159.394 240.334 161.363C241.741 163.333 242.445 166.639 242.445 171.282C242.445 176.347 241.671 180.005 240.123 182.256C238.576 184.508 236.536 185.844 234.003 186.266C231.611 186.688 229.079 186.899 226.406 186.899ZM178.71 83.0672H201.925L231.049 82.2231C233.722 82.2231 236.254 82.5044 238.646 83.0672C241.038 83.4893 243.008 84.8259 244.555 87.077C246.103 89.3281 246.877 93.0565 246.877 98.2622C246.877 103.046 246.103 106.563 244.555 108.814C243.148 111.065 241.249 112.543 238.857 113.246C236.465 113.809 233.862 114.09 231.049 114.09L203.402 113.457H177.866C173.786 113.316 170.902 112.121 169.214 109.869C167.666 107.478 166.892 103.538 166.892 98.0511C166.892 92.9861 167.877 89.2578 169.847 86.866C171.816 84.3335 174.771 83.0672 178.71 83.0672ZM355.591 186.688C350.385 186.688 346.516 185.774 343.984 183.945C341.592 182.116 340.396 179.865 340.396 177.191L342.506 173.604C341.662 175.011 340.044 176.769 337.652 178.88C335.261 180.85 332.165 182.679 328.367 184.367C324.568 185.915 319.855 186.688 314.227 186.688C307.755 186.688 301.564 185.281 295.655 182.468C289.887 179.654 284.751 175.785 280.249 170.86C275.747 165.795 272.159 160.097 269.486 153.766C266.954 147.435 265.687 140.752 265.687 133.717C265.687 126.823 266.954 120.281 269.486 114.09C272.159 107.759 275.747 102.202 280.249 97.418C284.892 92.4937 290.098 88.6246 295.866 85.8108C301.635 82.9969 307.755 81.5899 314.227 81.5899C319.432 81.5899 323.864 82.3638 327.522 83.9114C331.18 85.3183 334.205 87.0067 336.597 88.9764C339.13 90.9461 341.029 92.8455 342.295 94.6745L340.607 91.7199C340.466 88.3432 341.592 85.8108 343.984 84.1224C346.516 82.2934 350.455 81.3789 355.802 81.3789C360.867 81.3789 364.455 82.1527 366.565 83.7003C368.816 85.248 370.153 87.288 370.575 89.8205C371.137 92.353 371.419 95.0262 371.419 97.8401V170.649C371.419 173.322 371.137 175.925 370.575 178.458C370.153 180.99 368.816 183.03 366.565 184.578C364.455 185.985 360.796 186.688 355.591 186.688ZM318.87 155.243C322.528 155.243 325.834 154.329 328.789 152.5C331.884 150.53 334.276 147.927 335.964 144.691C337.793 141.455 338.708 137.868 338.708 133.928C338.708 129.848 337.793 126.26 335.964 123.165C334.135 119.929 331.673 117.397 328.578 115.568C325.482 113.598 322.106 112.613 318.448 112.613C314.367 112.613 310.709 113.598 307.473 115.568C304.378 117.537 301.846 120.14 299.876 123.376C298.047 126.612 297.132 130.27 297.132 134.35C297.132 138.149 298.047 141.666 299.876 144.902C301.846 147.997 304.449 150.53 307.684 152.5C311.061 154.329 314.79 155.243 318.87 155.243ZM414.361 186.899C409.296 186.899 405.638 186.126 403.387 184.578C401.136 183.03 399.799 181.061 399.377 178.669C398.955 176.277 398.744 173.674 398.744 170.86V96.9959C398.744 94.182 398.955 91.6496 399.377 89.3985C399.94 87.0067 401.347 85.1073 403.598 83.7003C405.849 82.1527 409.577 81.3789 414.783 81.3789C419.989 81.3789 423.787 82.4341 426.179 84.5445C428.571 86.5142 429.767 89.8205 429.767 94.4634L427.023 96.7849C427.305 96.0814 428.149 94.8855 429.556 93.1972C430.963 91.5089 432.792 89.7502 435.043 87.9212C437.294 86.0921 439.897 84.5445 442.851 83.2783C445.947 81.8713 449.253 81.1679 452.77 81.1679C457.413 81.1679 461.564 81.8713 465.222 83.2783C469.02 84.5445 472.397 86.5142 475.352 89.1874C478.447 91.7199 481.12 94.9559 483.371 98.8953C485.341 96.0814 487.733 93.3379 490.547 90.6647C493.36 87.9915 496.667 85.7404 500.465 83.9114C504.405 82.0824 508.766 81.1679 513.55 81.1679C521.71 81.1679 528.604 83.2783 534.232 87.4991C540 91.5792 544.362 97.4884 547.317 105.227C550.271 112.965 551.748 122.321 551.748 133.295V171.071C551.748 173.744 551.467 176.347 550.904 178.88C550.482 181.272 549.146 183.241 546.894 184.789C544.643 186.196 540.915 186.899 535.709 186.899C530.504 186.899 526.775 186.126 524.524 184.578C522.414 183.03 521.077 181.061 520.514 178.669C520.092 176.136 519.881 173.533 519.881 170.86V133.084C519.881 128.722 519.389 125.064 518.404 122.11C517.419 119.155 515.871 116.904 513.761 115.356C511.791 113.668 509.259 112.824 506.164 112.824C502.928 112.824 500.184 113.598 497.933 115.145C495.682 116.552 493.994 118.803 492.868 121.899C491.742 124.853 491.18 128.652 491.18 133.295V171.071C491.18 173.885 490.828 176.558 490.124 179.091C489.421 181.483 487.873 183.452 485.482 185C483.23 186.407 479.572 187.04 474.507 186.899C469.442 186.759 465.855 185.915 463.744 184.367C461.634 182.819 460.368 180.85 459.946 178.458C459.524 175.925 459.312 173.393 459.312 170.86V133.084C459.312 128.722 458.82 125.064 457.835 122.11C456.85 119.015 455.373 116.693 453.403 115.145C451.434 113.598 448.831 112.824 445.595 112.824C442.077 112.824 439.193 113.739 436.942 115.568C434.691 117.397 433.003 119.859 431.877 122.954C430.892 125.909 430.4 129.285 430.4 133.084V171.071C430.4 173.885 430.118 176.488 429.556 178.88C429.134 181.272 427.797 183.241 425.546 184.789C423.295 186.196 419.566 186.899 414.361 186.899Z" fill="#737FF6"/>
<path d="M24.2697 186.899C19.2047 186.899 15.5467 186.196 13.2956 184.789C11.0445 183.241 9.63754 181.201 9.07476 178.669C8.65268 176.136 8.44164 173.533 8.44164 170.86V55.4209C8.44164 52.607 8.65268 50.0041 9.07476 47.6123C9.63754 45.2205 11.0445 43.2508 13.2956 41.7032C15.5467 40.1556 19.2751 39.3817 24.4807 39.3817C29.8271 39.3817 33.5555 40.1556 35.6659 41.7032C37.917 43.2508 39.2536 45.2205 39.6757 47.6123C40.2385 50.0041 40.5199 52.6773 40.5199 55.6319V171.071C40.5199 173.744 40.2385 176.347 39.6757 178.88C39.1129 181.272 37.706 183.241 35.4549 184.789C33.3445 186.196 29.6161 186.899 24.2697 186.899ZM106.243 188.588C102.444 188.588 98.2934 188.166 93.7912 187.321C89.4297 186.477 85.1385 185.281 80.9177 183.734C76.6969 182.045 73.1795 180.146 70.3657 178.036C67.5518 175.785 65.9338 173.252 65.5117 170.438C65.2303 169.031 65.2303 167.554 65.5117 166.006C65.9338 164.318 66.6373 162.63 67.6221 160.941C68.607 159.112 69.8029 157.213 71.2098 155.243C72.3354 153.696 73.6016 152.711 75.0086 152.289C76.4155 151.867 78.0335 151.937 79.8625 152.5C82.1136 152.922 84.3647 153.696 86.6158 154.821C89.0076 155.806 91.3291 156.932 93.5802 158.198C95.972 159.323 98.4341 160.379 100.967 161.363C103.499 162.208 106.102 162.63 108.775 162.63C112.715 162.63 115.739 162.067 117.85 160.941C120.101 159.675 121.227 157.987 121.227 155.876C121.227 154.329 120.734 153.062 119.749 152.078C118.905 151.093 117.639 150.249 115.951 149.545C114.403 148.701 112.574 147.997 110.463 147.435C108.353 146.872 106.032 146.309 103.499 145.746C101.107 145.043 98.6452 144.339 96.1127 143.636C92.5953 142.651 89.2187 141.385 85.9827 139.837C82.7467 138.29 79.7922 136.32 77.119 133.928C74.4458 131.396 72.3354 128.371 70.7877 124.853C69.2401 121.195 68.4663 116.763 68.4663 111.558C68.4663 104.664 70.0843 98.8953 73.3202 94.2524C76.5562 89.6095 81.2694 86.0921 87.46 83.7003C93.6505 81.1679 101.178 79.9016 110.041 79.9016C112.574 79.9016 115.106 80.0423 117.639 80.3237C120.171 80.6051 122.633 81.0975 125.025 81.801C127.558 82.5044 130.02 83.3486 132.412 84.3335C134.804 85.3183 137.195 86.5142 139.587 87.9212C143.808 89.8909 145.989 92.5641 146.129 95.9407C146.27 99.3174 145.074 102.764 142.542 106.282C140.994 108.674 139.376 110.432 137.688 111.558C135.999 112.543 134.241 112.824 132.412 112.402C130.161 111.839 127.698 110.925 125.025 109.658C122.493 108.392 119.749 107.196 116.795 106.071C113.981 104.945 111.167 104.382 108.353 104.382C105.961 104.382 103.921 104.734 102.233 105.438C100.545 106 99.2783 106.845 98.4341 107.97C97.5899 108.955 97.1679 110.151 97.1679 111.558C97.1679 113.387 97.6603 114.864 98.6452 115.99C99.7707 116.974 101.248 117.819 103.077 118.522C104.906 119.226 107.016 119.859 109.408 120.421C111.8 120.984 114.403 121.547 117.217 122.11C121.015 122.813 124.885 123.798 128.824 125.064C132.904 126.19 136.562 127.878 139.798 130.129C143.175 132.38 145.848 135.405 147.818 139.204C149.928 143.003 150.983 147.997 150.983 154.188C150.983 165.303 147.114 173.815 139.376 179.724C131.638 185.633 120.593 188.588 106.243 188.588ZM226.406 186.899C219.23 186.899 213.04 186.126 207.834 184.578C202.769 183.03 198.548 180.638 195.172 177.403C191.795 174.167 189.262 170.086 187.574 165.162C186.027 160.097 185.253 154.118 185.253 147.224V61.541C185.253 58.7272 185.464 56.1947 185.886 53.9436C186.449 51.6925 187.856 49.8634 190.107 48.4565C192.358 46.9089 196.016 46.1351 201.081 46.1351C206.146 46.1351 209.804 46.9089 212.055 48.4565C214.306 50.0041 215.643 51.9739 216.065 54.3657C216.627 56.7574 216.909 59.3603 216.909 62.1742V145.957C216.909 148.209 217.05 150.108 217.331 151.656C217.753 153.062 218.316 154.118 219.019 154.821C219.723 155.525 220.708 156.017 221.974 156.298C223.24 156.58 224.788 156.721 226.617 156.721C229.712 156.721 232.456 157.002 234.847 157.565C237.239 158.127 239.068 159.394 240.334 161.363C241.741 163.333 242.445 166.639 242.445 171.282C242.445 176.347 241.671 180.005 240.123 182.256C238.576 184.508 236.536 185.844 234.003 186.266C231.611 186.688 229.079 186.899 226.406 186.899ZM178.71 83.0672H201.925L231.049 82.2231C233.722 82.2231 236.254 82.5044 238.646 83.0672C241.038 83.4893 243.008 84.8259 244.555 87.077C246.103 89.3281 246.877 93.0565 246.877 98.2622C246.877 103.046 246.103 106.563 244.555 108.814C243.148 111.065 241.249 112.543 238.857 113.246C236.465 113.809 233.862 114.09 231.049 114.09L203.402 113.457H177.866C173.786 113.316 170.902 112.121 169.214 109.869C167.666 107.478 166.892 103.538 166.892 98.0511C166.892 92.9861 167.877 89.2578 169.847 86.866C171.816 84.3335 174.771 83.0672 178.71 83.0672ZM355.591 186.688C350.385 186.688 346.516 185.774 343.984 183.945C341.592 182.116 340.396 179.865 340.396 177.191L342.506 173.604C341.662 175.011 340.044 176.769 337.652 178.88C335.261 180.85 332.165 182.679 328.367 184.367C324.568 185.915 319.855 186.688 314.227 186.688C307.755 186.688 301.564 185.281 295.655 182.468C289.887 179.654 284.751 175.785 280.249 170.86C275.747 165.795 272.159 160.097 269.486 153.766C266.954 147.435 265.687 140.752 265.687 133.717C265.687 126.823 266.954 120.281 269.486 114.09C272.159 107.759 275.747 102.202 280.249 97.418C284.892 92.4937 290.098 88.6246 295.866 85.8108C301.635 82.9969 307.755 81.5899 314.227 81.5899C319.432 81.5899 323.864 82.3638 327.522 83.9114C331.18 85.3183 334.205 87.0067 336.597 88.9764C339.13 90.9461 341.029 92.8455 342.295 94.6745L340.607 91.7199C340.466 88.3432 341.592 85.8108 343.984 84.1224C346.516 82.2934 350.455 81.3789 355.802 81.3789C360.867 81.3789 364.455 82.1527 366.565 83.7003C368.816 85.248 370.153 87.288 370.575 89.8205C371.137 92.353 371.419 95.0262 371.419 97.8401V170.649C371.419 173.322 371.137 175.925 370.575 178.458C370.153 180.99 368.816 183.03 366.565 184.578C364.455 185.985 360.796 186.688 355.591 186.688ZM318.87 155.243C322.528 155.243 325.834 154.329 328.789 152.5C331.884 150.53 334.276 147.927 335.964 144.691C337.793 141.455 338.708 137.868 338.708 133.928C338.708 129.848 337.793 126.26 335.964 123.165C334.135 119.929 331.673 117.397 328.578 115.568C325.482 113.598 322.106 112.613 318.448 112.613C314.367 112.613 310.709 113.598 307.473 115.568C304.378 117.537 301.846 120.14 299.876 123.376C298.047 126.612 297.132 130.27 297.132 134.35C297.132 138.149 298.047 141.666 299.876 144.902C301.846 147.997 304.449 150.53 307.684 152.5C311.061 154.329 314.79 155.243 318.87 155.243ZM414.361 186.899C409.296 186.899 405.638 186.126 403.387 184.578C401.136 183.03 399.799 181.061 399.377 178.669C398.955 176.277 398.744 173.674 398.744 170.86V96.9959C398.744 94.182 398.955 91.6496 399.377 89.3985C399.94 87.0067 401.347 85.1073 403.598 83.7003C405.849 82.1527 409.577 81.3789 414.783 81.3789C419.989 81.3789 423.787 82.4341 426.179 84.5445C428.571 86.5142 429.767 89.8205 429.767 94.4634L427.023 96.7849C427.305 96.0814 428.149 94.8855 429.556 93.1972C430.963 91.5089 432.792 89.7502 435.043 87.9212C437.294 86.0921 439.897 84.5445 442.851 83.2783C445.947 81.8713 449.253 81.1679 452.77 81.1679C457.413 81.1679 461.564 81.8713 465.222 83.2783C469.02 84.5445 472.397 86.5142 475.352 89.1874C478.447 91.7199 481.12 94.9559 483.371 98.8953C485.341 96.0814 487.733 93.3379 490.547 90.6647C493.36 87.9915 496.667 85.7404 500.465 83.9114C504.405 82.0824 508.766 81.1679 513.55 81.1679C521.71 81.1679 528.604 83.2783 534.232 87.4991C540 91.5792 544.362 97.4884 547.317 105.227C550.271 112.965 551.748 122.321 551.748 133.295V171.071C551.748 173.744 551.467 176.347 550.904 178.88C550.482 181.272 549.146 183.241 546.894 184.789C544.643 186.196 540.915 186.899 535.709 186.899C530.504 186.899 526.775 186.126 524.524 184.578C522.414 183.03 521.077 181.061 520.514 178.669C520.092 176.136 519.881 173.533 519.881 170.86V133.084C519.881 128.722 519.389 125.064 518.404 122.11C517.419 119.155 515.871 116.904 513.761 115.356C511.791 113.668 509.259 112.824 506.164 112.824C502.928 112.824 500.184 113.598 497.933 115.145C495.682 116.552 493.994 118.803 492.868 121.899C491.742 124.853 491.18 128.652 491.18 133.295V171.071C491.18 173.885 490.828 176.558 490.124 179.091C489.421 181.483 487.873 183.452 485.482 185C483.23 186.407 479.572 187.04 474.507 186.899C469.442 186.759 465.855 185.915 463.744 184.367C461.634 182.819 460.368 180.85 459.946 178.458C459.524 175.925 459.312 173.393 459.312 170.86V133.084C459.312 128.722 458.82 125.064 457.835 122.11C456.85 119.015 455.373 116.693 453.403 115.145C451.434 113.598 448.831 112.824 445.595 112.824C442.077 112.824 439.193 113.739 436.942 115.568C434.691 117.397 433.003 119.859 431.877 122.954C430.892 125.909 430.4 129.285 430.4 133.084V171.071C430.4 173.885 430.118 176.488 429.556 178.88C429.134 181.272 427.797 183.241 425.546 184.789C423.295 186.196 419.566 186.899 414.361 186.899Z" fill="#43D0FF"/>
<path d="M604.762 276.186C599.697 276.186 596.039 275.483 593.788 274.076C591.537 272.528 590.13 270.488 589.567 267.955C589.004 265.423 588.723 262.82 588.723 260.147V144.707C588.723 141.894 588.934 139.291 589.356 136.899C589.919 134.507 591.326 132.537 593.577 130.99C595.828 129.442 599.556 128.668 604.762 128.668C610.108 128.668 613.837 129.442 615.947 130.99C618.198 132.537 619.535 134.507 619.957 136.899C620.52 139.291 620.801 141.894 620.801 144.707V248.329H678.626C681.018 248.329 683.269 248.54 685.38 248.962C687.49 249.384 689.178 250.58 690.445 252.549C691.852 254.519 692.555 257.755 692.555 262.257C692.555 266.619 691.852 269.855 690.445 271.965C689.038 273.935 687.279 275.131 685.169 275.553C683.199 275.975 681.018 276.186 678.626 276.186H604.762ZM750.57 275.975C744.098 275.975 737.978 274.709 732.209 272.176C726.582 269.644 721.657 266.126 717.437 261.624C713.216 256.981 709.909 251.565 707.518 245.374C705.266 239.043 704.141 232.149 704.141 224.692V186.494C704.141 183.68 704.422 181.077 704.985 178.685C705.548 176.293 706.884 174.324 708.995 172.776C711.246 171.228 714.974 170.454 720.18 170.454C725.386 170.454 729.044 171.228 731.154 172.776C733.405 174.324 734.742 176.364 735.164 178.896C735.727 181.288 736.008 183.891 736.008 186.705V224.692C736.008 228.772 736.712 232.36 738.119 235.455C739.666 238.41 741.847 240.661 744.661 242.208C747.615 243.756 751.062 244.53 755.002 244.53C759.082 244.53 762.529 243.756 765.343 242.208C768.297 240.52 770.548 238.199 772.096 235.244C773.784 232.289 774.629 228.772 774.629 224.692V186.283C774.629 183.469 774.91 180.866 775.473 178.474C776.036 176.082 777.372 174.183 779.483 172.776C781.734 171.228 785.462 170.454 790.668 170.454C795.873 170.454 799.531 171.228 801.642 172.776C803.893 174.324 805.23 176.364 805.652 178.896C806.214 181.288 806.496 183.82 806.496 186.494V260.78C806.496 263.453 806.214 265.986 805.652 268.377C805.23 270.629 803.893 272.458 801.642 273.865C799.391 275.271 795.733 275.975 790.668 275.975C786.869 275.975 783.914 275.553 781.804 274.709C779.694 273.865 778.146 272.809 777.161 271.543C776.176 270.277 775.543 268.94 775.262 267.533C775.121 266.126 775.051 264.86 775.051 263.735L777.794 261.413C777.372 261.976 776.458 263.031 775.051 264.579C773.644 266.126 771.744 267.815 769.353 269.644C767.101 271.332 764.428 272.809 761.333 274.076C758.238 275.342 754.65 275.975 750.57 275.975ZM918.679 175.097C921.774 178.052 923.744 180.725 924.588 183.117C925.573 185.368 925.573 187.689 924.588 190.081C923.603 192.332 921.633 195.006 918.679 198.101L851.568 270.699C848.895 273.513 846.433 275.412 844.181 276.397C841.93 277.523 839.609 277.663 837.217 276.819C834.966 275.975 832.363 274.146 829.409 271.332C826.454 268.377 824.484 265.775 823.499 263.524C822.655 261.132 822.726 258.81 823.71 256.559C824.836 254.167 826.735 251.565 829.409 248.751L896.52 175.942C900.881 171.58 904.539 169.329 907.494 169.188C910.589 168.907 914.317 170.877 918.679 175.097ZM829.409 175.097C832.363 172.283 834.966 170.454 837.217 169.61C839.609 168.766 841.93 168.907 844.181 170.032C846.433 171.017 848.895 172.987 851.568 175.942L918.679 248.751C921.493 251.705 923.392 254.308 924.377 256.559C925.503 258.81 925.643 261.132 924.799 263.524C923.955 265.775 921.915 268.377 918.679 271.332C915.724 274.146 913.121 275.975 910.87 276.819C908.619 277.663 906.368 277.523 904.117 276.397C902.007 275.412 899.474 273.513 896.52 270.699L829.409 198.101C826.595 195.146 824.695 192.543 823.71 190.292C822.726 187.901 822.655 185.509 823.499 183.117C824.484 180.725 826.454 178.052 829.409 175.097ZM987.571 275.975C981.099 275.975 974.978 274.709 969.21 272.176C963.582 269.644 958.658 266.126 954.437 261.624C950.216 256.981 946.91 251.565 944.518 245.374C942.267 239.043 941.142 232.149 941.142 224.692V186.494C941.142 183.68 941.423 181.077 941.986 178.685C942.549 176.293 943.885 174.324 945.996 172.776C948.247 171.228 951.975 170.454 957.181 170.454C962.386 170.454 966.044 171.228 968.155 172.776C970.406 174.324 971.743 176.364 972.165 178.896C972.727 181.288 973.009 183.891 973.009 186.705V224.692C973.009 228.772 973.712 232.36 975.119 235.455C976.667 238.41 978.848 240.661 981.661 242.208C984.616 243.756 988.063 244.53 992.002 244.53C996.083 244.53 999.53 243.756 1002.34 242.208C1005.3 240.52 1007.55 238.199 1009.1 235.244C1010.79 232.289 1011.63 228.772 1011.63 224.692V186.283C1011.63 183.469 1011.91 180.866 1012.47 178.474C1013.04 176.082 1014.37 174.183 1016.48 172.776C1018.73 171.228 1022.46 170.454 1027.67 170.454C1032.87 170.454 1036.53 171.228 1038.64 172.776C1040.89 174.324 1042.23 176.364 1042.65 178.896C1043.22 181.288 1043.5 183.82 1043.5 186.494V260.78C1043.5 263.453 1043.22 265.986 1042.65 268.377C1042.23 270.629 1040.89 272.458 1038.64 273.865C1036.39 275.271 1032.73 275.975 1027.67 275.975C1023.87 275.975 1020.92 275.553 1018.8 274.709C1016.69 273.865 1015.15 272.809 1014.16 271.543C1013.18 270.277 1012.54 268.94 1012.26 267.533C1012.12 266.126 1012.05 264.86 1012.05 263.735L1014.79 261.413C1014.37 261.976 1013.46 263.031 1012.05 264.579C1010.64 266.126 1008.75 267.815 1006.35 269.644C1004.1 271.332 1001.43 272.809 998.334 274.076C995.238 275.342 991.651 275.975 987.571 275.975ZM1080.34 276.186C1075.13 276.186 1071.4 275.483 1069.15 274.076C1067.04 272.528 1065.71 270.488 1065.14 267.955C1064.72 265.423 1064.51 262.82 1064.51 260.147V186.494C1064.51 183.68 1064.79 181.077 1065.35 178.685C1065.92 176.293 1067.25 174.394 1069.36 172.987C1071.61 171.439 1075.34 170.666 1080.55 170.666C1085.47 170.666 1088.99 171.369 1091.1 172.776C1093.35 174.042 1094.76 175.59 1095.32 177.419C1095.88 179.107 1096.17 180.584 1096.17 181.851L1093.63 183.117C1093.91 182.554 1094.62 181.569 1095.74 180.162C1097.01 178.615 1098.7 177.067 1100.81 175.519C1102.92 173.831 1105.45 172.424 1108.41 171.299C1111.5 170.173 1115.02 169.61 1118.96 169.61C1120.51 169.61 1122.19 169.751 1124.02 170.032C1125.99 170.173 1127.96 170.595 1129.93 171.299C1132.04 171.861 1133.94 172.706 1135.63 173.831C1137.32 174.816 1138.66 176.082 1139.64 177.63C1140.77 179.177 1141.33 181.077 1141.33 183.328C1141.33 189.096 1139.99 194.021 1137.32 198.101C1134.65 202.04 1131.27 204.01 1127.19 204.01C1124.8 204.01 1123.11 203.799 1122.12 203.377C1121.14 202.955 1120.29 202.533 1119.59 202.111C1119.03 201.689 1118.33 201.337 1117.48 201.055C1116.64 200.633 1115.09 200.422 1112.84 200.422C1110.73 200.422 1108.69 200.704 1106.72 201.266C1104.89 201.829 1103.13 202.744 1101.44 204.01C1099.89 205.136 1098.63 206.613 1097.64 208.442C1096.8 210.13 1096.38 212.03 1096.38 214.14V260.569C1096.38 263.242 1096.1 265.845 1095.53 268.377C1095.11 270.769 1093.77 272.669 1091.52 274.076C1089.27 275.483 1085.54 276.186 1080.34 276.186ZM1185.88 318.816C1180.11 316.284 1176.73 313.47 1175.75 310.375C1174.9 307.279 1175.68 303.129 1178.07 297.923L1231.04 179.529C1233.43 174.042 1236.03 170.806 1238.85 169.821C1241.8 168.696 1246.16 169.259 1251.93 171.51C1257.56 174.183 1260.8 176.997 1261.64 179.951C1262.63 182.906 1261.99 186.845 1259.74 191.77L1206.56 311.008C1204.17 316.495 1201.56 319.801 1198.75 320.927C1195.94 322.052 1191.64 321.349 1185.88 318.816ZM1204.24 269.644L1154.64 194.091C1151.55 189.448 1150.28 185.579 1150.84 182.484C1151.55 179.389 1154.36 176.223 1159.29 172.987C1164.77 169.61 1168.99 168.344 1171.95 169.188C1175.04 169.892 1178.14 172.635 1181.23 177.419L1217.74 233.345L1204.24 269.644Z" fill="white"/>
</svg>
